<svg xmlns="http://www.w3.org/2000/svg" viewBox="0 0 940 340" width="940" height="340" role="img" aria-label="Context traffic by segment (Σ input+cache tokens, median)"><rect width="940" height="340" fill="#fafafa"/><text x="70" y="16" font-size="13" fill="#1a1a1a">Context traffic by segment</text><text x="264" y="16" font-size="11" fill="#888">Σ input+cache tokens, median</text><line x1="70" x2="920" y1="240" y2="240" stroke="#e5e5e5"/><text x="62" y="244" font-size="10" fill="#777" text-anchor="end">0</text><line x1="70" x2="920" y1="191.5" y2="191.5" stroke="#e5e5e5"/><text x="62" y="195.5" font-size="10" fill="#777" text-anchor="end">256381</text><line x1="70" x2="920" y1="143" y2="143" stroke="#e5e5e5"/><text x="62" y="147" font-size="10" fill="#777" text-anchor="end">512762</text><line x1="70" x2="920" y1="94.5" y2="94.5" stroke="#e5e5e5"/><text x="62" y="98.5" font-size="10" fill="#777" text-anchor="end">769142</text><line x1="70" x2="920" y1="46" y2="46" stroke="#e5e5e5"/><text x="62" y="50" font-size="10" fill="#777" text-anchor="end">1025523</text><rect x="121.7" y="79.9" width="27.0" height="160.1" fill="#8a8f98"><title>long-session · baseline: 846170</title></rect><rect x="151.7" y="108.1" width="27.0" height="131.9" fill="#e8a04c"><title>long-session · adhd: 697331</title></rect><rect x="181.7" y="79.7" width="27.0" height="160.3" fill="#6ac47a"><title>long-session · caveman: 847220</title></rect><rect x="211.7" y="96.3" width="27.0" height="143.7" fill="#b07be8"><title>long-session · concise: 759573</title></rect><rect x="241.7" y="46.0" width="27.0" height="194.0" fill="#4c9be8"><title>long-session · hush: 1025523</title></rect><rect x="271.7" y="100.8" width="27.0" height="139.2" fill="#e86a8a"><title>long-session · ste: 736044</title></rect><rect x="405.0" y="187.9" width="27.0" height="52.1" fill="#8a8f98"><title>noisy-output · baseline: 275493</title></rect><rect x="435.0" y="196.3" width="27.0" height="43.7" fill="#e8a04c"><title>noisy-output · adhd: 230838</title></rect><rect x="465.0" y="201.2" width="27.0" height="38.8" fill="#6ac47a"><title>noisy-output · caveman: 204844</title></rect><rect x="495.0" y="199.4" width="27.0" height="40.6" fill="#b07be8"><title>noisy-output · concise: 214735</title></rect><rect x="525.0" y="188.5" width="27.0" height="51.5" fill="#4c9be8"><title>noisy-output · hush: 272196</title></rect><rect x="555.0" y="194.8" width="27.0" height="45.2" fill="#e86a8a"><title>noisy-output · ste: 238834</title></rect><rect x="688.3" y="180.3" width="27.0" height="59.7" fill="#8a8f98"><title>search-heavy · baseline: 315442</title></rect><rect x="718.3" y="188.7" width="27.0" height="51.3" fill="#e8a04c"><title>search-heavy · adhd: 270965</title></rect><rect x="748.3" y="190.5" width="27.0" height="49.5" fill="#6ac47a"><title>search-heavy · caveman: 261457</title></rect><rect x="778.3" y="202.9" width="27.0" height="37.1" fill="#b07be8"><title>search-heavy · concise: 195994</title></rect><rect x="808.3" y="173.4" width="27.0" height="66.6" fill="#4c9be8"><title>search-heavy · hush: 352167</title></rect><rect x="838.3" y="190.0" width="27.0" height="50.0" fill="#e86a8a"><title>search-heavy · ste: 264212</title></rect><text x="211.7" y="256" transform="rotate(28 211.7 256)" font-size="11" fill="#444" text-anchor="start">long-session</text><text x="495.0" y="256" transform="rotate(28 495.0 256)" font-size="11" fill="#444" text-anchor="start">noisy-output</text><text x="778.3" y="256" transform="rotate(28 778.3 256)" font-size="11" fill="#444" text-anchor="start">search-heavy</text><rect x="70" y="24" width="10" height="10" fill="#8a8f98"/><text x="85" y="33" font-size="11" fill="#333">baseline</text><rect x="200" y="24" width="10" height="10" fill="#e8a04c"/><text x="215" y="33" font-size="11" fill="#333">adhd</text><rect x="330" y="24" width="10" height="10" fill="#6ac47a"/><text x="345" y="33" font-size="11" fill="#333">caveman</text><rect x="460" y="24" width="10" height="10" fill="#b07be8"/><text x="475" y="33" font-size="11" fill="#333">concise</text><rect x="590" y="24" width="10" height="10" fill="#4c9be8"/><text x="605" y="33" font-size="11" fill="#333">hush</text><rect x="720" y="24" width="10" height="10" fill="#e86a8a"/><text x="735" y="33" font-size="11" fill="#333">ste</text></svg>
