<?xml version="1.0" encoding="UTF-8" standalone="no"?><!DOCTYPE svg PUBLIC "-//W3C//DTD SVG 1.1//EN" "http://www.w3.org/Graphics/SVG/1.1/DTD/svg11.dtd"><svg width="100%" height="100%" viewBox="0 0 1772 2676" version="1.1" xmlns="http://www.w3.org/2000/svg" xmlns:xlink="http://www.w3.org/1999/xlink" xml:space="preserve" xmlns:serif="http://www.serif.com/" style="fill-rule:evenodd;clip-rule:evenodd;stroke-linejoin:round;stroke-miterlimit:2;"><path d="M288.97,1909.954c95.406,0.007 146.767,4.822 148.317,-13.161c3.288,-38.125 -7.208,-49.419 15.21,-50.173c103.047,-3.463 102.531,-0.306 1288.811,-0.335c19.866,-0 42.196,1.205 22.42,74.789c-47.22,175.7 -321.876,168.292 -407.865,194.338c-286.48,86.775 -256.833,313.085 24.673,327.243c34.708,1.746 51.626,-13.727 52.17,20.827c3.085,196.067 6.669,201.559 -8.883,207.378c-0.985,0.369 -304.215,7.305 -315.981,-4.174c-40.345,-39.359 -46.371,-61.171 -139.184,-93.806c-10.865,-3.82 -161.012,-45.573 -274.689,63.646c-25.576,24.573 -20.636,35.695 -52.63,35.856c-269.861,1.359 -270.908,6.976 -292.57,-1.89c-15.337,-6.277 -12.007,-11.49 -8.369,-206.974c0.631,-33.892 46.967,-8.92 153.882,-37.959c150.805,-40.96 175.659,-187.386 9.543,-202.811c-76.281,-7.083 -399.565,-13.344 -492.583,-247.991c-4.846,-12.226 -18.168,-56.937 -6.716,-62.482c5.803,-2.809 5.895,-2.311 284.446,-2.322Zm180.131,231.078c14.247,1.538 239.807,-3.404 225.401,185.148c-12.908,168.946 -267.963,190.4 -272.64,199.621c-5.842,11.517 -6.161,64.124 13.417,64.661c185.494,5.082 190.64,0.512 202.785,-10.274c148.594,-131.967 351.944,-132.308 496.89,-0.531c20.506,18.643 211.442,14.684 217.056,2.954c0.95,-1.986 11.787,-58.244 -13.467,-63.224c-15.008,-2.96 -164.86,-18.761 -232.109,-116.707c-56.155,-81.788 -71.213,-329.185 351.089,-387.463c40.005,-5.521 134.774,-5.339 202.939,-70.45c30.371,-29.011 -35.912,-20.692 -39.463,-20.684c-1087.557,2.656 -1105.015,-10.174 -1106.094,15.488c-0.855,20.335 16.031,49.234 -36.878,49.254c-353.429,0.131 -363.387,-2.77 -362.014,10.802c0.853,8.437 50.794,54.274 88.489,74.592c100.743,54.301 212.591,60.256 264.599,66.813Z" style="fill:#2b56bc;"/><path d="M929.616,1036.633c-6.455,156.943 6.63,726.528 -7.416,735.683c-3.348,2.182 -73.926,13.717 -77.351,-13.125c-7.86,-61.616 16.255,-646.77 -13.201,-791.238c-2.83,-13.878 -11.758,-72.282 -35.981,-73.665c-126.499,-7.223 -132.876,4.54 -127.41,13.207c48.79,77.366 69.249,74.622 69.23,249.784c-0.067,605.94 2.726,612.938 -10.827,616.844c-5.894,1.698 -73.347,21.137 -75.094,-15.45c-7.357,-154.097 17.309,-680.322 -17.083,-748.373c-76.617,-151.602 -194.633,-89.644 -196.02,-136.745c-0.052,-1.775 -0.14,-854.394 0.321,-858.782c1.77,-16.84 11.641,-14.268 640.808,-14.352c238.699,-0.032 253.801,-5.33 254.298,22.541c0.116,6.496 0.207,848.572 0.144,850.591c-1.464,47.313 -118.563,-14.66 -196.045,136.742c-40.168,78.49 3.241,751.624 -25.053,763.283c-6.383,2.63 -76.893,14.751 -76.97,-23.328c-1.336,-665.787 -9.101,-666.908 6.333,-722.622c33.172,-119.745 92.028,-134.157 54.117,-134.568c-130.997,-1.421 -133.431,4.499 -137.643,14.741c-19.807,48.167 -27.716,116.875 -29.158,128.83Zm-202.406,-220.022c8.58,-0.184 50.753,8.067 22.525,-26.283c-9.722,-11.831 -37.162,-48.627 -45.734,-41.75c-6.026,4.834 -1.989,51.626 -1.603,56.099c1.433,16.613 8.275,10.134 24.812,11.934Zm318.035,-0.013c16.605,-1.54 24.006,5.136 25.464,-11.746c0.393,-4.551 4.524,-52.39 -1.654,-57.073c-8.177,-6.198 -32.639,26.149 -46.182,42.626c-28.226,34.342 14.426,26.009 22.372,26.193Zm94.504,-0.024c78.434,0.502 78.545,4.929 84.304,1.416c2.692,-1.642 7.255,-5.822 -20.883,-33.428c-75.22,-73.796 -72.923,-83.148 -90.366,-78.115c-24.794,7.155 -16.393,87.145 -16.354,89.91c0.422,29.633 14.008,18.863 43.299,20.217Zm85.96,-162.383c-6.607,0.671 -104.56,10.621 -64.719,51.984c84.018,87.229 92.715,90.166 95.233,80.513c5.167,-19.81 -1.459,-110.273 -2.16,-119.835c-0.997,-13.617 -7.324,-8.262 -28.355,-12.661Zm-678.97,-0.307c-18.639,1.613 -26.96,-6.07 -28.22,13.056c-0.63,9.558 -6.752,102.47 -2.127,119.713c2.581,9.623 11.145,6.577 95.118,-80.4c41.814,-43.31 -58.131,-51.804 -64.771,-52.368Zm51.599,162.732c6.014,-0.009 70.851,-0.105 74.996,-5.197c10.517,-12.919 8.214,-136.8 -31.045,-99.842c-99.194,93.379 -103.208,100.077 -93.766,106.364c3.318,2.209 3.636,-0.097 49.814,-1.325Zm446.917,-575.84c15.559,-0.891 16.899,3.441 23.38,-4.903c5.241,-6.747 2.686,-140.497 1.699,-143.968c-3.379,-11.884 -7.487,-13.261 -154.116,-9.927c-21.532,0.49 -18.169,29.805 -17.301,138.587c0.215,26.921 28.901,20.061 146.338,20.21Zm-318.059,0.048c119.622,-0.253 146.683,6.52 146.901,-20.239c0.878,-107.959 4.643,-138.159 -17.859,-138.629c-146.365,-3.056 -150.556,-1.83 -153.757,10.074c-0.832,3.092 -3.727,136.599 1.571,143.654c6.202,8.26 8.054,4.128 23.145,5.14Zm249.648,134.8c-22.649,23.482 -67.019,59.001 -43.647,60.489c136.127,8.664 138.024,-6.704 138.259,-17.855c2.602,-123.654 1.201,-130.32 -8.974,-128.628c-2.602,0.433 -78.876,79.026 -85.638,85.994Zm-137.594,137.407c-103.917,107.091 -131.549,121.082 -104.247,122.251c136.774,5.855 138.813,-8.121 139.026,-19.348c2.362,-124.141 0.867,-130.958 -9.3,-129.025c-2.868,0.546 -2.686,0.511 -25.48,26.122Zm415.306,-8.876c-0.825,-32.522 -0.085,-32.431 -0.891,-35.123c-4.549,-15.184 -152.776,-16.521 -156.778,0.779c-1.157,5.002 -0.981,127.453 -0.576,129.052c2.991,11.832 8.927,1.662 145.208,-46.773c12.049,-4.282 12.948,-43.962 13.038,-47.935Zm-736.459,-206.242c-0.052,94.158 -8.025,136.82 20.103,137.163c119.493,1.458 138.316,2.954 138.738,-16.733c3.134,-146.215 1.68,-150.628 -10.322,-153.272c-1.052,-0.232 -135.632,-2.177 -142.606,2.183c-7.369,4.607 -4.047,6.049 -5.914,30.659Zm736.557,94.511c-0.037,-62.791 2.524,-119.988 -6.051,-125.397c-7.034,-4.437 -140.609,-2.244 -142.638,-1.744c-11.907,2.933 -13.241,7.23 -9.688,152.982c0.499,20.452 23.789,18.01 137.993,16.99c29.496,-0.263 19.011,-13.748 20.384,-42.831Zm-294.719,111.062c49.305,49.119 46.044,51.146 97.024,99.698c15.634,14.889 16.261,-6.646 14.524,-124.84c-0.165,-11.237 -1.486,-28.803 -139.096,-19.612c-24.214,1.617 24.696,42.134 27.548,44.755Zm-163.73,-128.447c-10.755,-10.647 -84.019,-85.687 -86.089,-86.008c-10.236,-1.589 -11.175,5.133 -8.701,129.19c0.222,11.112 2.226,25.828 137.782,17.804c24.745,-1.465 -16.576,-34.162 -42.992,-60.985Zm-277.992,120.531c0.097,4.403 1.127,51.059 9.967,54.137c139.475,48.575 144.402,61.255 148.305,49.375c0.971,-2.954 0.742,-125.588 -0.196,-129.493c-4.075,-16.959 -152.716,-15.917 -157.293,-0.472c-0.602,2.03 -0.058,1.959 -0.783,26.452Zm415.064,17.395c-22.873,-25.513 -22.695,-25.483 -25.568,-25.981c-10.185,-1.768 -11.275,5.029 -8.848,128.911c0.219,11.192 2.245,25.106 138.586,19.363c27.709,-1.167 -0.355,-15.319 -104.17,-122.294Zm-163.571,33.635c66.606,-66.606 82.228,-78.591 77.677,-85.286c-2.086,-3.068 -136.525,-5.172 -142.85,2.488c-11.465,13.882 -4.837,124.533 -4.19,135.347c1.039,17.344 13.114,5.302 69.362,-52.549Zm420.874,-421.283c32.052,-30.83 31.93,-30.516 33.31,-34.07c3.197,-8.233 -3.159,-11.77 -110.017,-9.234c-9.865,0.234 -27.836,0.661 -18.503,121.949c1.645,21.385 24.166,-7.639 95.21,-78.646Zm-513.463,43.671c-0.052,-12.801 4.686,-81.339 -10.064,-85.823c-7.915,-2.407 -7.758,-0.986 -103.392,-2.126c-16.302,-0.194 -18.907,7.538 -7.683,18.742c51.751,51.661 52.02,50.617 102.973,103.011c20.328,20.902 15.991,-4.881 18.167,-33.803Zm153.899,205.629c11.69,12.535 42.766,47.785 43.664,27.059c5.827,-134.514 -7.58,-136.652 -18.627,-136.835c-121.886,-2.016 -130.003,-2.649 -126.916,7.04c0.225,0.707 -0.012,0.27 101.879,102.736Zm423.643,-171.236c0.016,-6.981 0.182,-79.47 0.728,-87.266c2.9,-41.41 -47.485,35.953 -129.018,107.747c-25.187,22.178 41.787,17.442 108.075,16.638c25.668,-0.311 16.985,-11.805 20.216,-37.119Zm-304.403,162.839c82.861,-83.176 83.67,-81.032 90.719,-88.305c12.178,-12.564 -4.941,-14.96 -124.555,-12.95c-11.013,0.185 -25.466,2.134 -18.223,136.47c1.104,20.479 23.617,-5.311 52.059,-35.215Zm-432.32,-223c0.089,44.243 -8.892,97.098 20.067,97.4c113.386,1.182 121.617,-1.864 116.47,-9.67c-4.21,-6.386 -5.415,-4.197 -68.16,-67.051c-55.041,-55.136 -51.731,-59.557 -58.412,-59.728c-2.487,-0.063 -11.633,4.683 -11.836,5.591c-0.586,2.616 0.139,2.478 1.871,33.456Zm456.425,573.936c21.369,-22.643 21.231,-21.645 43.379,-42.571c22.077,-20.858 -34.301,-17.871 -101.513,-16.632c-26.799,0.494 -16.709,67.112 -17.599,112.608c-0.065,3.313 -1.245,63.624 13.602,39.123c29.031,-47.907 27.286,-48.118 62.13,-92.528Zm-176.016,-0.181c13.269,17.135 39.403,43.65 59.067,87.023c25.811,56.932 17.809,-136.838 12.798,-142.02c-3.176,-3.285 -122.613,-13.755 -119.579,6.185c0.821,5.399 4.473,2.141 47.715,48.812Z" style="fill:#2b56bb;"/></svg>
