<?xml version="1.0" encoding="UTF-8" standalone="no"?><!DOCTYPE svg PUBLIC "-//W3C//DTD SVG 1.1//EN" "http://www.w3.org/Graphics/SVG/1.1/DTD/svg11.dtd"><svg width="240" height="187.95" viewBox="0 0 996 780" version="1.1" xmlns="http://www.w3.org/2000/svg" xmlns:xlink="http://www.w3.org/1999/xlink" xml:space="preserve" xmlns:serif="http://www.serif.com/" style="fill-rule:evenodd;clip-rule:evenodd;stroke-linejoin:round;stroke-miterlimit:2;"><path d="M414.962,297.458c-5.649,-4.593 -6.335,-2.303 -13.577,-2.303c-16.504,-0 -197.066,-0.003 -206.294,0.409c-1.769,0.079 -3.887,2.176 -1.151,5.823c27.511,36.67 53.675,32.199 129.091,32.595c5.206,0.027 5.924,0.039 57.932,52.32c65.141,65.485 66.602,65.2 66.175,68.346c-0.308,2.267 -191.08,190.908 -204.151,204.506c-5.116,5.321 -0.157,31.212 -1.747,45.135c-0.578,5.06 -39.014,41.446 -39.816,41.563c-3.81,0.558 -3.179,-1.115 -8.672,-6.313c-6.716,-6.355 -21.203,16.64 -26.844,19.575c-4.089,2.128 -4.827,0.22 -42.525,-38.875c-2.805,-2.909 -1.888,-4.401 14.914,-21.378c10.933,-11.047 -2.495,-12.887 -2.896,-17.423c-0.149,-1.691 34.253,-40.37 43.245,-40.432c33.606,-0.231 38.195,2.391 46.411,-5.914c47.423,-47.941 179.628,-177.16 179.863,-180.603c0.243,-3.571 -18.137,-19.638 -18.352,-19.74c-3.513,-1.673 -22.397,18.807 -111.715,107.851c-10.832,10.798 -20.901,3.948 -63.191,3.217c-6.521,-0.113 -3.62,3.256 -4.929,9.635c-1.005,4.896 -3.219,15.688 -39.096,48.725c-2.034,1.873 -5.1,-0.89 -5.431,-1.188c-10.782,-9.715 -14.068,8.118 -22.773,12.441c-3.975,1.974 -14.663,-9.76 -15.692,-10.89c-3.67,-4.03 15.177,-17.273 16.604,-21.894c0.73,-2.364 -8.529,-11.422 -9.414,-12.289c-6.071,-5.94 -17.084,12.872 -22.631,15.815c-2.204,1.169 -12.595,-9.545 -13.551,-10.53c-6.838,-7.05 18.542,-20.695 15.446,-26.026c-3.191,-5.494 -4.793,-6.577 0.675,-12.252c39.296,-40.784 44.609,-37.474 69.894,-31.601c1.664,0.387 2.571,1.01 42.935,-39.129c94.195,-93.671 96.072,-93.363 95.381,-96.687c-5.203,-25.042 -115.107,30.513 -159.533,-71.94c-2.437,-5.62 -12.561,-5.768 -13.981,-6.059c-33.805,-6.919 -56.736,-36.853 -63.332,-54.149c-6.665,-17.476 -13.445,-9.763 -31.232,-18.856c-43.706,-22.344 -55.352,-77.131 -49.657,-79.723c1.72,-0.783 565.461,-0.551 569.121,-0.809c7.199,-0.507 60.983,-58.747 95.414,-91.688c68.697,-65.725 169.802,-51.193 207.292,-22.522c27.972,21.391 28.747,34.12 34.458,44.082c2.117,3.693 89.899,9.476 87.743,87.226c-0.312,11.252 -26.127,-17.25 -71.769,1.019c-94.335,37.757 -79.097,149.785 -78.649,166.042c5.252,190.407 -162.9,288.184 -294.983,267.584c-85.886,-13.395 -100.942,-44.282 -111.582,-41c-3.36,1.037 -58.299,57.597 -63.264,62.709c-3.508,3.611 -3.261,4.174 -0.987,36.683c0.574,8.199 8.154,-1.631 9.725,-3.154c64.539,-62.578 62.766,-64.472 69.372,-68.633c3.338,-2.103 28.819,10.172 27.727,13.539c-0.295,0.91 -90.556,90.113 -91.331,91.491c-1.898,3.376 0.374,3.099 11.135,14.563c3.698,3.94 -7.354,12.805 -29.673,35.26c-47.355,47.644 -47.703,47.357 -47.98,47.391c-5.601,0.675 -4.803,-2.051 -51.031,-48.676c-5.888,-5.939 -0.746,-7.906 69.391,-77.846c5.321,-5.306 2.785,-8.111 -0.258,-43.189c-0.607,-7.002 1.591,-6.834 64.597,-69.85c69.608,-69.619 87.113,-85.997 87.226,-88.937c0.16,-4.155 -87.569,-88.71 -111.875,-113.849c-3.719,-3.846 0.275,-4.462 33.798,-39.196Zm-88.313,447.403l10.122,-10.212c1.471,-1.891 2.432,-3.724 -18.564,-23.495c-2.848,-2.681 -6.477,2.31 -12.867,8.331c-8.903,8.39 -1.981,9.738 6.462,18.559c7.906,8.26 8.645,10.989 14.847,6.817Zm397.633,-397.609c-1.376,12.275 -10.667,95.19 -98.23,119.128c-11.882,3.248 -22.958,2.301 -28.052,7.429c-22.61,22.759 -23.334,22.113 -24.718,24.531c-1.74,3.039 -0.012,3.303 3.458,3.32c16.555,0.081 89.956,5.475 146.232,-67.838c40.46,-52.708 42.431,-134.866 1.233,-188.903c-1.072,-1.406 -11.474,-16.183 -15.568,-15.352c-0.043,0.009 -21.835,16.586 -17.597,22.205c16.721,22.171 33.822,38.831 33.242,95.482Zm-403.287,107.376c40.067,-39.675 40.084,-39.661 40.286,-39.931c3.519,-4.728 -16.2,-23.168 -19.778,-22.152c-1.122,0.319 -118.937,117.613 -120.557,118.967c-7.27,6.08 2.25,5.76 31.94,6.678c7.975,0.247 31.891,-28.878 68.108,-63.562Zm538.053,-288.853c-1.522,-0.658 -0.382,-1.612 -1.812,-2.23c-0.156,-0.067 -0.371,-0.16 -2.045,0.564c-25.998,11.242 -39.867,26.146 -42.685,29.174c-12.66,13.604 -2.613,15.36 4.51,30.872c10.321,22.474 1.187,-14.861 42.032,-58.379Zm-703.408,546.301c-8.098,8.66 9.111,18.502 11.905,15.852c1.431,-1.358 1.18,-1.498 17.334,-17.542c6.719,-6.672 13.533,9.227 17.829,5.267c16.553,-15.258 16.592,-18.04 16.53,-21.817c-0.319,-19.521 1.067,-31.06 -5.538,-31.116c-23.387,-0.2 -26.329,-5.7 -42.763,10.978c-11.137,11.303 0.809,11.932 2.137,17.844c0.79,3.518 -6.845,9.984 -17.434,20.534Zm622.988,-627.517c-44.04,13.446 -45.291,27.471 -95.851,73.926c-11.002,10.109 9.975,4.336 56.287,57.308c6.567,7.512 14.876,23.488 17.256,16.14c23.919,-73.853 78.119,-83.358 91.681,-99.936c20.606,-25.187 20.173,-27.552 17.653,-28.463c-3.675,-1.329 -4.299,2.09 -20.854,-3.656c-7.423,-2.576 -8.454,-3.049 -13.364,3.217c-9.343,11.925 -40.799,15.068 -43.74,-15.738c-0.578,-6.053 -6.929,-3.135 -9.067,-2.798Zm-189.512,84.449c-12.98,-0.302 -12.758,-0.381 -26.86,-0.374c-448.21,0.213 -448.182,-1.359 -519.614,-0.033c-4.684,0.087 2.215,8.391 2.694,8.967c20.719,24.936 31.478,22.164 178.669,21.47c26.374,-0.124 329.252,-1.551 329.679,-1.375c0.82,0.339 2.232,1.554 -5.853,9.423c-10.189,9.917 -124.57,121.244 -125.424,125.917c-0.716,3.916 64.707,68.762 67.727,68.53c5.044,-0.387 13.429,-11.734 14.349,-12.978c7.327,-9.914 -47.243,-42.343 -38.832,-51.235c0.092,-0.097 135.299,-134.351 136.611,-135.407c1.934,-1.557 5.451,-4.389 30.224,7.079c5.1,2.361 0.37,4.498 -47.492,51.759c-78.585,77.598 -78.882,77.945 -78.552,80.409c0.263,1.962 19.739,21.117 21.141,21.747c4.175,1.876 4.061,-1.154 91.032,-87.049c66.341,-65.521 72.698,-67.091 66.544,-71.948c-47.431,-37.434 -87.747,-34.275 -96.043,-34.9Zm46.159,174.222c-0.123,-2.01 -1.005,-16.372 -5.255,-24.623c-5.023,-9.752 -8.526,-4.013 -20.481,7.947c-52.102,52.125 -60.685,58.081 -56.794,61.195c22.652,18.132 77.561,9.172 82.53,-44.519Zm-473.21,182.625c-14.095,2.066 -26.22,16.358 -22.216,21.174c1.861,2.239 21.106,25.393 26.4,25.042c6.995,-0.464 31.851,-31.981 5.789,-44.434c-4.632,-2.214 -4.737,-1.357 -9.973,-1.782Zm188.191,186.099c9.119,7.617 9.403,0.285 17.879,-8.065c0.342,-0.337 3.707,-3.653 1.927,-5.68c-19.888,-22.646 -22.479,-20.402 -24.339,-18.791c-1.049,0.909 -9.751,8.446 -12.005,12.521c-1.673,3.023 8.088,11.548 16.539,20.015Zm427.7,-428.594c5.92,34.342 27.951,127.813 -68.852,206.781c-82.72,67.479 -199.027,34.408 -195.596,26.584c0.229,-0.522 72.622,-73.572 75.425,-74.784c5.998,-2.596 42.324,4.168 80.204,-37.195c52.177,-56.975 6.195,-139.753 -3.57,-133.347c-1.147,0.752 -16.01,15.159 -16.567,16.19c-3.622,6.7 28.187,30.42 11.239,82.1c-14.762,45.015 -77.061,75.271 -124.302,42.86c-12.258,-8.41 -13.392,-2.253 -22.902,9.231c-5.666,6.843 27.981,23.603 19.816,32.342c-3.703,3.964 -69.716,69.439 -69.9,70.483c-1.281,7.275 127.244,84.24 254.565,-3.206c82.518,-56.675 94.085,-143.292 94.48,-145.169c13.462,-64.079 -21.192,-153.711 -26.35,-139.943c-5.059,13.506 -7.391,43.269 -7.69,47.073Zm137.191,-182.392c-2.653,-0.489 -9.938,-3.766 -13.86,1.472c-1.066,1.424 -10.292,13.745 -13.793,17.444c-11.57,12.224 6.774,6.051 13.068,5.625c48.363,-3.267 64.037,4.309 57.323,-2.763c-16.618,-17.506 -42.538,-21.723 -42.738,-21.778Zm-633.394,127.853c-5.358,-0.084 -166.529,0.14 -167.193,0.735c-2.856,2.559 13.8,32.596 47.622,34.458c21.414,1.179 31.334,1.725 268.074,1.106c13.265,-0.035 14.578,1.997 23.988,-7.289c26.214,-25.869 27.63,-24.903 27.848,-28.058c0.299,-4.329 -3.042,-1.419 -190.02,-1.115c-5.286,0.009 -5.149,0.081 -10.319,0.163Zm505.4,-171.375c14.305,-0.439 27.421,-2.764 49.189,9.771c2.894,1.666 27.055,15.579 39.671,12.984c9.678,-1.991 -15.171,-51.391 -88.951,-51.338c-85.967,0.062 -120.668,65.31 -167.978,107.363c-7.437,6.61 7.673,5.871 15.564,8.265c1.409,0.427 15.79,4.792 18.216,2.602c49.489,-44.665 56.388,-76.747 134.288,-89.648Z" style="fill:#2d54b3;"/></svg>
