<?xml version="1.0" encoding="UTF-8" standalone="no"?><!DOCTYPE svg PUBLIC "-//W3C//DTD SVG 1.1//EN" "http://www.w3.org/Graphics/SVG/1.1/DTD/svg11.dtd"><svg width="240" height="240" viewBox="0 0 123 123" version="1.1" xmlns="http://www.w3.org/2000/svg" xmlns:xlink="http://www.w3.org/1999/xlink" xml:space="preserve" xmlns:serif="http://www.serif.com/" style="fill-rule:evenodd;clip-rule:evenodd;stroke-linejoin:round;stroke-miterlimit:2;"><path d="M92.68,23.154c0.078,0.05 0.062,0.191 0.14,0.242c0.096,0.062 0.225,0.039 0.337,0.065c1.143,0.269 3.814,1.985 4.145,5.539c1.136,12.183 -13.869,19.045 -14.638,18.957c-0.358,-0.041 -2.759,-6.672 -2.705,-7.372c0.056,-0.728 7.505,-2.453 11.428,-7.485c6.075,-7.793 -4.926,-8.64 -10.328,-3.868c-7.6,6.713 -0.419,15.975 1.453,25.139c2.455,12.016 -6.631,17.787 -9.587,19.157c-6.146,2.849 -9.009,1.651 -9.127,2.371c-0.032,0.195 3.095,8.8 7.537,14.845c11.89,16.185 23.473,8.856 30.298,6.937c14.166,-3.984 21.509,6.353 17.371,15.336c-3.386,7.35 -24.457,20.52 -46.752,-12.332c-1.55,-2.283 -1.367,-2.646 -2.655,-2.844c-37.448,-5.748 -40.897,-31.46 -51.965,-44.275c-6.015,-6.964 -15.244,-6.661 -14.768,-7.451c0.02,-0.034 5.237,-2.799 8.459,-4.368c1.982,-0.965 1.8,-1.207 3.316,-2.788c12.718,-13.273 24.88,-3.074 31.11,1.916c8.662,6.939 11.048,3.608 12.524,-0.637c3.999,-11.505 10.482,-16.619 28.298,-26.068c15.652,-8.301 18.099,-11.823 20.054,-13.056c0.779,-0.491 2.06,3.319 1.816,5.805c-1.145,11.652 -12.972,14.816 -15.763,16.235Zm-19.017,9.002c-1.609,1.338 -7.524,4.953 -10.414,10.855c-0.745,1.522 -1.108,1.14 -2.659,1.795c-8.1,3.419 -10.068,7.363 -10.859,7.504c-6.564,1.168 -11.222,-9.677 -20.035,-11.577c-2.895,-0.624 -6.839,-1.129 -15.512,4.035c-1.815,1.081 7.925,-1.868 15.585,11.401c7.742,13.411 10.761,27.412 29.714,35.931c2.584,1.161 8.927,3.327 9.17,2.911c0.267,-0.457 -3.126,-4.124 -8.231,-18.933c-0.484,-1.404 -3.029,-0.05 -7.623,-3.589c-7.572,-5.832 -7.866,-20.007 10.028,-26.683c4.396,-1.64 8.169,-2.534 8.314,-2.997c0.025,-0.08 -0.015,-5.391 2.179,-9.568c0.143,-0.272 0.566,-0.869 0.534,-0.941c-0.032,-0.073 -0.16,-0.07 -0.193,-0.144Zm-12.779,31.611c0.094,0.67 0.899,6.414 1.703,8.282c0.334,0.775 9.63,-0.023 11.31,-8.462c0.188,-0.944 0.873,-4.384 -1.15,-11.973c-0.235,-0.88 -0.862,-0.425 -4.784,0.424c-1.74,0.377 -7.18,1.768 -7.373,2.522c-0.559,2.194 0.204,8.476 0.293,9.207Zm-4.257,-5.534c-0.073,-1.216 0.018,-1.256 -0.143,-1.4c-0.272,-0.244 -5.302,3.691 -3.252,9.686c1.341,3.92 5.996,5.735 5.829,4.97c-0.789,-3.608 -1.552,-4.384 -2.434,-13.256Z" style="fill:#ffffff;"/></svg>
