<?xml version="1.0" encoding="UTF-8" standalone="no"?><!DOCTYPE svg PUBLIC "-//W3C//DTD SVG 1.1//EN" "http://www.w3.org/Graphics/SVG/1.1/DTD/svg11.dtd"><svg width="100%" height="100%" viewBox="0 0 639 599" version="1.1" xmlns="http://www.w3.org/2000/svg" xmlns:xlink="http://www.w3.org/1999/xlink" xml:space="preserve" xmlns:serif="http://www.serif.com/" style="fill-rule:evenodd;clip-rule:evenodd;stroke-linejoin:round;stroke-miterlimit:2;"><path d="M600.506,406.202c25.816,0.002 37.182,-1.21 37.437,3.387c0.684,12.317 0.154,168.928 0.104,183.618c-0.027,7.971 -15.274,5.371 -21.038,5.365c-215.497,-0.196 -261.77,0.509 -264.376,-0.613c-5.548,-2.39 1.893,-106.532 -4.237,-113.682c-2.127,-2.481 -24.483,-28.56 -26.792,-30.834c-2.533,-2.494 -4.449,-1.574 -31.827,31.011c-3.969,4.724 -2.386,24.841 -2.548,108.75c-0.014,7.14 -7.155,5.399 -12.597,5.389c-151.749,-0.292 -199.363,0.712 -202.432,-0.887c-2.822,-1.47 -0.799,-111.036 -1.386,-165.394c-0.1,-9.225 -5.667,-4.39 -64.312,-4.98c-8.359,-0.084 -6.271,-7.23 -6.266,-36.257c0.027,-151.376 -0.1,-151.392 0.128,-152.616c1.342,-7.2 61.861,-1.14 68.216,-3.774c4.833,-2.003 -0.009,-164.693 2.705,-168.933c0.93,-1.452 1.375,-1.579 106.408,-1.624c73.382,-0.032 77.646,-2.928 77.186,3.236c-0.031,0.417 -8.438,15.062 -9.475,16.091c-4.625,4.592 -148.857,-0.103 -152.131,2.595c-2.749,2.265 -2.383,146.354 -0.186,148.332c1.532,1.379 44.132,0.888 45.597,0.29c5.112,-2.086 -0.578,-106.627 3.179,-110.405c2.478,-2.492 78.748,-0.995 78.895,-0.893c1.941,1.345 -5.92,14.481 -6.618,15.647c-3.87,6.467 -5.762,3.572 -48.765,4.98c-4.402,0.144 -3.324,2.829 -3.48,84.14c-0.018,9.611 4.234,7.052 13.734,7.046c88.271,-0.058 88.782,0.003 89.736,-1.507c1.239,-1.959 0.707,-37.297 0.358,-38.302c-1.586,-4.563 -45.489,-1.489 -55.08,-2.106c-0.718,-0.046 -3.572,-0.571 1.326,-8.896c98.238,-166.955 95.588,-168.428 104.627,-182.634c2.543,-3.996 3.93,-1.028 9.172,8.026c8.294,14.326 98.962,170.926 103.305,179.287c3.008,5.791 -8.055,3.935 -51.317,4.032c-0.014,0 -5.668,-0.777 -5.843,4.145c-1.303,36.678 0.599,37.689 3.638,37.883c0.924,0.059 96.341,0.134 97.244,-0.048c3.635,-0.73 3.259,-2.497 3.278,-85.311c0.003,-11.072 -6.395,-5.156 -42.639,-5.784c-9.823,-0.17 -12.481,-10.273 -15.011,-14.49c-5.476,-9.125 4.072,-6.46 6.771,-6.448c30.4,0.137 68.33,-0.291 69.949,0.353c5.204,2.071 -0.295,44.169 3.596,47.81c2.106,1.971 44.988,0.933 45.77,0.572c3.322,-1.535 2.971,-83.774 0.26,-85.856c-1.797,-1.381 -142.038,-0.148 -148.374,-0.667c-5.26,-0.431 -15.629,-19.823 -12.113,-21.082c0.008,-0.003 36.63,-0.019 36.79,-0.017c39.979,0.502 211.559,-0.656 214.756,0.532c2.28,0.847 2.198,1.814 2.143,74.77c-0.084,111.907 0.228,113.998 -0.746,115.262c-3.875,5.029 -67.331,-2.421 -69.228,4.477c-1.545,5.619 -0.294,130.817 -0.18,142.191c0.067,6.752 10.587,4.85 32.693,4.823Zm-418.686,-57.317c-10.501,-0.022 -10.328,-0.277 -16.692,0.061c-4.195,0.223 -4.693,2.369 -3.234,52.414c0.206,7.069 15.978,4.884 26.112,4.873c75.354,-0.082 77.187,0.711 77.927,-2.884c0.219,-1.064 0.221,-50.221 0.025,-51.385c-0.627,-3.727 -2.527,-3.062 -84.139,-3.079Zm435.246,145.314c0.004,-4.95 0.044,-57.559 -0.001,-61.878c-0.053,-5.073 -2.899,-4.961 -6.231,-4.983c-14.363,-0.097 -143.937,-0.97 -179.547,-0.013c-1.918,0.052 -6.36,0.171 -4.347,23.588c0.483,5.617 3.487,4.219 64.248,4.398c10.14,0.03 5.149,5.894 6.1,45.083c0.124,5.091 5.305,4.345 6.276,4.347c8.747,0.01 103.625,0.123 109.332,-0.062c6.961,-0.225 3.853,-3.575 4.169,-10.48Zm-513.626,83.341c30.068,0.025 37.155,1.702 37.206,-4.964c0.276,-35.444 -2.7,-44.7 6.113,-44.714c33.548,-0.052 42.257,1.889 42.424,-4.816c1.1,-44.035 0.622,-45.26 -2.944,-46.283c-6.842,-1.962 -6.995,-0.492 -88.974,-0.289c-6.875,0.017 -5.569,3.817 -5.568,67.225c0.001,29.863 -0.084,29.856 0.07,30.807c0.759,4.69 2.733,2.424 11.672,3.033Zm-11.704,-139.029c0.165,12.846 -1.535,13.645 1.641,16.094c0.666,0.514 0.777,0.665 113.189,0.665c56.358,-0 59.169,0.953 59.535,-4.403c1.589,-23.25 -1.806,-23.404 -3.707,-23.491c-0.739,-0.034 -166.318,-0.179 -167.37,0.034c-2.82,0.571 -3.248,10.176 -3.289,11.102Zm-41.207,-101.063c0.002,-52.318 -0.296,-54.166 1.467,-55.522c1.54,-1.185 11.588,-0.778 61.759,-0.766c150.352,0.036 151.066,-0.289 151.816,-1.841c0.792,-1.637 0.466,-19.506 0.298,-20.119c-1.027,-3.739 -9.569,-2.849 -40.74,-2.865c-202.442,-0.104 -202.713,0.723 -203.208,1.41c-2.249,3.12 -0.854,130.252 -0.73,141.578c0.101,9.232 7.72,7.116 24.542,6.881c7.281,-0.102 4.786,-18.23 4.786,-19.246l0.01,-49.509Zm547.916,-102.323c1.42,-0.002 16.738,-0.02 17.689,-1.413c1.068,-1.565 0.758,-11.466 0.753,-17.95c-0.096,-126.895 0.781,-127.103 -0.839,-129.146c-1.928,-2.432 -45.618,-1.303 -46.421,-0.687c-4.095,3.137 -0.26,100.098 -2.138,105.076c-2.142,5.678 -67.282,-1.516 -69.737,4.283c-0.764,1.806 -0.371,35.838 -0.211,36.934c0.421,2.876 1.933,3.13 100.905,2.903Zm-527.217,158.004c0.368,3.373 -0.283,6.805 0.085,10.178c0.36,3.306 2.154,3.043 63.076,2.9c2.725,-0.006 6.24,0.394 6.313,-4.812c0.939,-67.548 -4.247,-73.688 6.059,-73.7c115.221,-0.13 119.193,1.635 119.284,-4.7c0.033,-2.308 1.894,-20.365 -3.797,-20.542c-1.318,-0.041 -187.166,-0.042 -187.669,0.011c-3.916,0.419 -3.375,2.585 -3.351,90.665Zm203.688,-276.191c-28.24,50.191 -35.485,55.28 -27.085,55.412c32.433,0.512 39.293,-6.013 39.305,6.287c0.219,214.555 -1.743,217.424 1.942,217.195c3.984,-0.248 27.216,-36.206 32.507,-31.049c8.036,7.832 29.571,38.709 29.569,28.401c-0.048,-215.353 -4.249,-220.787 3.888,-220.999c35.905,-0.936 40.401,1.194 38.259,-3.518c-4.492,-9.88 -6.505,-8.605 -67.765,-117.528c-3.869,-6.879 -4.884,-9.543 -7.683,-8.791c-1.803,0.485 -39.596,68.57 -42.937,74.59Zm153.206,156.569c-0.184,-12.88 3.497,-15.493 -2.787,-17.034c-2.896,-0.71 -2.796,-0.212 -37.272,-0.101c-11.424,0.037 -16.198,-2.509 -16.205,8.893c-0.055,88.572 -0.201,88.671 0.734,89.998c1.996,2.833 171.324,1.288 172.285,0.852c2.84,-1.29 2.883,-97.919 0.002,-99.207c-2.53,-1.131 -92.776,-0.468 -93.028,-0.398c-3.549,0.974 -3.233,2.299 -2.724,45.922c0.083,7.1 4.132,3.793 44.099,4.905c7.313,0.204 5.449,18.082 3.95,19.619c-3.562,3.653 -4.525,1.642 -63.764,1.192c-6.677,-0.051 -5.322,-3.718 -5.288,-54.639Zm-42.115,132.688l154.696,0.01c8.273,-0.025 5.966,-12.147 5.9,-23.371c-0.003,-0.522 -0.03,-5.022 -3.917,-5.22c-15.599,-0.795 -89.122,-0.088 -96.871,-0.014c-69.633,0.669 -71.703,-0.903 -73.305,1.677c-1.155,1.859 -0.66,23.305 -0.501,24.062c0.979,4.668 2.897,2.362 13.998,2.857Zm10.307,171.334c17.333,0.009 215.536,0.112 216.661,-0c4.782,-0.48 4.252,-2.722 4.09,-42.079c-0.049,-11.826 -4.78,-9.545 -16.553,-9.541c-122.071,0.042 -123.362,0.107 -124.147,-2.719c-1.631,-5.873 3.2,-44.98 -3.5,-46.508c-7.703,-1.756 -65.387,2.916 -66.911,-2.908c-1.38,-5.274 2.747,-45.993 -3.26,-46.376c-29.75,-1.895 -30.23,0.536 -30.707,2.958c-0.224,1.134 -0.263,142.879 -0.022,144.199c0.794,4.349 15.474,2.957 24.349,2.975Zm-148.498,-0.006c1.416,-0.003 16.743,-0.032 17.634,-1.48c0.54,-0.878 2.085,-97.194 -0.878,-98.682c-3.555,-1.786 -3.706,-1.254 -49.726,-0.876c-6.966,0.057 -4.512,6.806 -4.835,67.199c-0.003,0.479 -0.026,4.835 -3.257,5.019c-14.433,0.823 -44.324,-2.25 -44.822,3.371c-2.23,25.127 1.174,25.305 3.221,25.413c2.487,0.13 74.676,0.04 82.663,0.037Zm75.94,-153.131c18.662,21.021 27.133,33.376 27.384,26.563c0.99,-26.92 -4.466,-25.845 -22.181,-46.069c-6.53,-7.456 -7.507,-13.976 -14.014,-6.423c-26.457,30.713 -27.418,30.249 -27.612,33.887c-1.063,19.917 0.071,20.58 1.708,20.456c2.054,-0.155 26.719,-32.856 30.752,-32.009l3.963,3.595Z" style="fill:#1e478b;"/></svg>
