<?xml version="1.0" encoding="UTF-8" standalone="no"?><!DOCTYPE svg PUBLIC "-//W3C//DTD SVG 1.1//EN" "http://www.w3.org/Graphics/SVG/1.1/DTD/svg11.dtd"><svg width="240" height="240" viewBox="0 0 123 123" version="1.1" xmlns="http://www.w3.org/2000/svg" xmlns:xlink="http://www.w3.org/1999/xlink" xml:space="preserve" xmlns:serif="http://www.serif.com/" style="fill-rule:evenodd;clip-rule:evenodd;stroke-linejoin:round;stroke-miterlimit:2;"><g><path d="M119.929,37.342c-0.47,22.249 -27.023,17.406 -22.385,1.923c0.006,-0.021 1.261,-2.822 -0.119,-5.263c-2.475,-4.377 -13.454,-2.818 -21.826,7.535c-11.919,14.739 -17.751,38.475 -38.29,41.028c-2.561,0.318 -2.656,0.071 -2.631,-0.138c0.5,-4.132 8.502,-8.755 12.132,-12.602c13.747,-14.569 16.391,-42.138 40.259,-51.386c15.812,-6.126 32.516,1.157 32.859,18.904Z" style="fill:#13161d;"/><path d="M36.575,53.507c0.767,0.081 4.841,0.142 8.16,3.635c2.348,2.471 4.019,7.584 1.159,11.045c-3.494,4.229 -14.02,9.307 -13.195,16.426c0.359,3.101 5.037,4.54 8.634,-0.527c0.914,-1.288 1.419,-0.529 5.783,-2.834c2.504,-1.323 3.369,-2.388 3.174,-1.613c-4.693,18.59 -24.75,18.539 -25.173,4.253c-0.002,-0.057 -0.022,-0.732 -0.237,-0.674c-2.407,0.657 -7.366,4.014 -10.762,7.931c-0.651,0.751 -3.582,3.747 -8.042,10.561c-2.237,3.417 -2.146,3.455 -2.692,4.322c-1.012,1.609 0.067,-0.857 0.097,-0.925c0.331,-0.756 3.993,-10.092 10.353,-18.189c7.974,-10.152 13.332,-10.563 14.032,-11.621c4.176,-6.312 10.349,-8.5 8.367,-12.016c-1.755,-3.113 -10.339,0.038 -8.084,8.296c0.112,0.411 -0.278,0.568 -1.448,2.309c-0.47,0.7 -0.772,0.274 -4.065,2.33c-0.478,0.298 -0.71,-0.322 -1.143,-1.399c-3.283,-8.149 1.391,-14.427 2.135,-15.426c4.995,-6.711 12.828,-5.887 12.948,-5.885Z" style="fill:#13161d;"/></g></svg>
