<?xml version="1.0" encoding="UTF-8" standalone="no"?><!DOCTYPE svg PUBLIC "-//W3C//DTD SVG 1.1//EN" "http://www.w3.org/Graphics/SVG/1.1/DTD/svg11.dtd"><svg width="100%" height="100%" viewBox="0 0 635 649" version="1.1" xmlns="http://www.w3.org/2000/svg" xmlns:xlink="http://www.w3.org/1999/xlink" xml:space="preserve" xmlns:serif="http://www.serif.com/" style="fill-rule:evenodd;clip-rule:evenodd;stroke-linejoin:round;stroke-miterlimit:2;"><path d="M318.395,548.166c-12.733,-1.083 -9.947,-6.594 -103.647,-165.604c-14.567,-24.72 -115.313,-195.686 -180.408,-309.988c-30.625,-53.774 -47.741,-72.292 -21.276,-72.503c3.512,-0.028 610.237,-0.178 612.618,0.067c18.679,1.92 7.089,16.712 -21.468,66.132c-21.493,37.196 -21.585,37.12 -269.973,464.197c-8.869,15.249 -8.979,15.888 -15.847,17.699Zm15.418,-99.975c-5.223,46.961 -7.097,49.857 -3.149,49.479c0.265,-0.025 91.92,-158.81 99.896,-172.63c85.522,-148.161 85.885,-147.807 172.534,-295.363c2.813,-4.791 -1.794,-3.215 -2.077,-3.118c-95.148,32.543 -147.382,105.763 -174.704,147.932c-68.321,105.444 -89.212,250.823 -92.5,273.7Zm-33.153,-2.06c-4.784,-32.206 -41.796,-338.184 -264.843,-418.866c-9.874,-3.572 2.237,12.062 7.515,21.311c56.622,99.219 179.394,308.707 195.092,335.494c65.763,112.213 64.225,113.313 65.497,113.644c4.002,1.04 2.463,-2.424 -3.261,-51.582Zm262.768,-424.956c-0.022,-1.313 1.407,-0.518 1.384,-1.86c-0.002,-0.144 -0.011,-0.621 -1.434,-1.094c-0.584,-0.194 -1.263,0.199 -1.847,0.005c-18.914,2.046 -476.85,1.232 -486.842,0.384c-14.63,-1.241 8.27,5.416 38.924,26.226c151.511,102.854 195.746,318.662 201.302,370.348c3.918,36.447 4.226,-9.304 12.603,-45.021c67.424,-287.491 226.94,-342.895 235.911,-348.988Z" style="fill:#214888;"/><path d="M326.304,647.518c-59.924,8.905 -45.722,-72.156 -1.703,-61.401c21.971,5.368 42.387,43.583 1.703,61.401Z" style="fill:#204989;"/></svg>
