<?xml version="1.0" encoding="UTF-8" standalone="no"?><!DOCTYPE svg PUBLIC "-//W3C//DTD SVG 1.1//EN" "http://www.w3.org/Graphics/SVG/1.1/DTD/svg11.dtd"><svg width="240" height="240" viewBox="0 0 123 123" version="1.1" xmlns="http://www.w3.org/2000/svg" xmlns:xlink="http://www.w3.org/1999/xlink" xml:space="preserve" xmlns:serif="http://www.serif.com/" style="fill-rule:evenodd;clip-rule:evenodd;stroke-linejoin:round;stroke-miterlimit:2;"><path d="M122.88,61.378c-0.241,4.986 -4.28,9.049 -11.233,6.402c-3.435,-1.307 -13.79,-7.89 -24.576,0.196c-11.541,8.653 -13.346,29.294 -26.084,32.246c-11.557,2.678 -17.599,-11.83 -16.421,-14.368c1.456,-3.135 4.431,-3.422 5.09,-1.783c1.768,4.403 6.047,15.89 17.738,0.791c5.479,-7.076 12.783,-20.175 25.294,-23.184c1.146,-0.276 1.919,-0.288 1.283,-0.49c-2.207,-0.699 -14.317,-2.041 -20.734,-19.261c-2.686,-7.206 -4.164,-15.332 -8.776,-13.431c-4.782,1.972 -3.508,14.587 -5.038,24.78c-0.71,4.728 -3.233,19.419 -18.661,31.247c-9.783,7.5 -20.69,6.762 -24.512,-7.277c-2.445,-8.983 -6.479,-13.608 -14.694,-14.382c-2.291,-0.216 -1.731,-2.34 -0.361,-2.444c3.985,-0.303 10.539,-1.468 14.266,-12.004c0.713,-2.017 2.239,-13.546 12.935,-14.636c9.652,-0.984 13.382,8.668 13.874,9.942c2.445,6.327 2.863,14.204 4.025,21.244c0.085,0.517 0.511,1.881 -1.678,2.217c-4.18,0.64 -5.946,-5.157 -6.143,-5.803c-1.511,-4.96 -4.181,-22.558 -11.82,-17.927c-3.941,2.389 -5.865,13.515 -17.698,17.771c-0.193,0.07 -1.531,0.298 -0.779,0.581c0.909,0.342 2.849,0.543 7.143,3.806c10.141,7.706 7.925,18.636 18.825,13.201c3.596,-1.793 10.061,-5.946 13.691,-9.706c15.193,-15.738 4.553,-35.132 8.089,-42.689c1.946,-4.16 9.703,-7.64 14.768,2.736c4.12,8.441 4.897,24.001 21.297,28.965c10.52,3.184 18.786,-3.753 23.228,-3.838c7.086,-0.137 7.597,6.266 7.664,7.099Z" style="fill:#14171d;"/></svg>
