<svg xmlns="http://www.w3.org/2000/svg" viewBox="0 0 940 346" width="940" height="346" role="img" aria-label="Every session in the suite, one spike per run (words of play-by-play before the answer)"><rect width="940" height="346" fill="#fafafa"/><text x="24" y="16" font-size="13" fill="#1a1a1a">Every session in the suite, one spike per run</text><text x="351" y="16" font-size="11" fill="#888">words of play-by-play before the answer</text><line x1="24" x2="920" y1="156" y2="156" stroke="#d9d9d9"/><line x1="61.3" x2="61.3" y1="156" y2="155.5" stroke="#4c9be8" stroke-width="71.7" stroke-linecap="round"><title>run 1: 0 words</title></line><line x1="136.0" x2="136.0" y1="156" y2="155.5" stroke="#4c9be8" stroke-width="71.7" stroke-linecap="round"><title>run 2: 0 words</title></line><line x1="210.7" x2="210.7" y1="156" y2="155.5" stroke="#4c9be8" stroke-width="71.7" stroke-linecap="round"><title>run 3: 0 words</title></line><line x1="285.3" x2="285.3" y1="156" y2="141.2" stroke="#4c9be8" stroke-width="71.7" stroke-linecap="round"><title>run 4: 8 words</title></line><line x1="360.0" x2="360.0" y1="156" y2="155.5" stroke="#4c9be8" stroke-width="71.7" stroke-linecap="round"><title>run 5: 0 words</title></line><line x1="434.7" x2="434.7" y1="156" y2="155.5" stroke="#4c9be8" stroke-width="71.7" stroke-linecap="round"><title>run 6: 0 words</title></line><line x1="509.3" x2="509.3" y1="156" y2="155.5" stroke="#4c9be8" stroke-width="71.7" stroke-linecap="round"><title>run 7: 0 words</title></line><line x1="584.0" x2="584.0" y1="156" y2="70.7" stroke="#4c9be8" stroke-width="71.7" stroke-linecap="round"><title>run 8: 46 words</title></line><line x1="658.7" x2="658.7" y1="156" y2="155.5" stroke="#4c9be8" stroke-width="71.7" stroke-linecap="round"><title>run 9: 0 words</title></line><line x1="733.3" x2="733.3" y1="156" y2="155.5" stroke="#4c9be8" stroke-width="71.7" stroke-linecap="round"><title>run 10: 0 words</title></line><line x1="808.0" x2="808.0" y1="156" y2="155.5" stroke="#4c9be8" stroke-width="71.7" stroke-linecap="round"><title>run 11: 0 words</title></line><line x1="882.7" x2="882.7" y1="156" y2="155.5" stroke="#4c9be8" stroke-width="71.7" stroke-linecap="round"><title>run 12: 0 words</title></line><text x="24" y="38" font-size="12" fill="#333">hush — silent in 10 of 12 sessions, loudest run 46 words</text><line x1="24" x2="920" y1="306" y2="306" stroke="#d9d9d9"/><line x1="61.3" x2="61.3" y1="306" y2="305.5" stroke="#e8a04c" stroke-width="71.7" stroke-linecap="round"><title>run 1: 0 words</title></line><line x1="136.0" x2="136.0" y1="306" y2="305.5" stroke="#e8a04c" stroke-width="71.7" stroke-linecap="round"><title>run 2: 0 words</title></line><line x1="210.7" x2="210.7" y1="306" y2="305.5" stroke="#e8a04c" stroke-width="71.7" stroke-linecap="round"><title>run 3: 0 words</title></line><line x1="285.3" x2="285.3" y1="306" y2="285.6" stroke="#e8a04c" stroke-width="71.7" stroke-linecap="round"><title>run 4: 11 words</title></line><line x1="360.0" x2="360.0" y1="306" y2="272.6" stroke="#e8a04c" stroke-width="71.7" stroke-linecap="round"><title>run 5: 18 words</title></line><line x1="434.7" x2="434.7" y1="306" y2="305.5" stroke="#e8a04c" stroke-width="71.7" stroke-linecap="round"><title>run 6: 0 words</title></line><line x1="509.3" x2="509.3" y1="306" y2="218.8" stroke="#e8a04c" stroke-width="71.7" stroke-linecap="round"><title>run 7: 47 words</title></line><line x1="584.0" x2="584.0" y1="306" y2="204.0" stroke="#e8a04c" stroke-width="71.7" stroke-linecap="round"><title>run 8: 55 words</title></line><line x1="658.7" x2="658.7" y1="306" y2="268.9" stroke="#e8a04c" stroke-width="71.7" stroke-linecap="round"><title>run 9: 20 words</title></line><line x1="733.3" x2="733.3" y1="306" y2="305.5" stroke="#e8a04c" stroke-width="71.7" stroke-linecap="round"><title>run 10: 0 words</title></line><line x1="808.0" x2="808.0" y1="306" y2="305.5" stroke="#e8a04c" stroke-width="71.7" stroke-linecap="round"><title>run 11: 0 words</title></line><line x1="882.7" x2="882.7" y1="306" y2="305.5" stroke="#e8a04c" stroke-width="71.7" stroke-linecap="round"><title>run 12: 0 words</title></line><text x="24" y="188" font-size="12" fill="#333">secondfact — silent in 7 of 12 sessions, loudest run 55 words</text></svg>
