<?xml version="1.0" encoding="UTF-8" standalone="no"?><!DOCTYPE svg PUBLIC "-//W3C//DTD SVG 1.1//EN" "http://www.w3.org/Graphics/SVG/1.1/DTD/svg11.dtd"><svg width="100%" height="100%" viewBox="0 0 550 642" version="1.1" xmlns="http://www.w3.org/2000/svg" xmlns:xlink="http://www.w3.org/1999/xlink" xml:space="preserve" xmlns:serif="http://www.serif.com/" style="fill-rule:evenodd;clip-rule:evenodd;stroke-linejoin:round;stroke-miterlimit:2;"><path d="M549.185,253.078c-0.041,300.428 0.48,300.988 -1.398,302.994c-0.52,0.555 -268.595,86.014 -274.215,85.496c-1.11,-0.102 -1.102,-0.201 -158.917,-49.635c-64.509,-20.207 -112.814,-34.246 -113.993,-37.381c-0.803,-2.134 -0.422,-2.112 -0.524,-264.349c-0.016,-40.627 -1.428,-47.583 5.159,-44.763c19.561,8.375 62.061,25.507 62.11,25.5c2.927,-0.443 2.731,-2.007 2.404,-69.4c-0.039,-8.05 12.082,1.467 47.359,20.075c42.76,22.554 45.232,23.926 42.621,27.004c-11.573,13.648 -14.566,8.956 -24.813,3.265c-43.041,-23.901 -46.016,-25.422 -46.519,-21.358c-1.579,12.762 0.339,12.745 -0.251,160.738c-0.004,0.893 -0.043,10.743 1.555,11.053c0.79,0.153 27.854,-10.79 28.582,-17.307c2.528,-22.65 -7.437,-70.381 11.588,-90.103c105.671,-109.541 107.207,-108.987 107.94,-114.116c0.234,-1.638 0.182,-63.252 0.03,-63.706c-2.605,-7.79 -57.31,2.146 -49.545,-6.622c11.029,-12.454 75.938,-98.913 82.448,-107.585c5.267,-7.016 6.869,-1.084 20.287,16.393c64.424,83.915 63.81,84.337 69.943,91.188c4.637,5.18 -10.961,3.552 -44.078,3.653c-8.239,0.025 -5.222,6.775 -5.629,79.154c-0.155,27.599 -2.944,28.244 -43.421,70.53c-73.756,77.054 -74.925,76.969 -75.017,82.082c-0.558,30.877 -0.398,35.115 4.349,32.776c7.336,-3.615 57.355,-31.445 62.325,-34.21c11.543,-6.422 6.091,-23.138 1.847,-25.575c-11.443,-6.569 -21.862,-9.969 -18.266,-13.914c0.821,-0.9 9.026,-9.901 11.801,-9.618c9.078,0.924 12.438,14.733 27.51,6.132c19.703,-11.244 174.481,-93.037 189.683,-101.07c9.502,-5.021 7.177,2.673 7.131,13.491c-0.018,4.298 -0.216,50.894 -0.05,53.73c0.342,5.849 3.876,2.729 33.423,-8.974c30.452,-12.061 35.942,-19.83 36.565,-9.66c0.083,1.361 -0.105,2.73 -0.021,4.091Zm-246.885,257.421c-17.629,9.646 -18.632,10.161 -18.685,16.892c-0.053,6.774 -0.607,77.639 -0.097,84.681c0.437,6.041 4.38,0.562 99.94,-59.168c8.651,-5.407 13.479,-6.574 6.848,-14.411c-40.423,-47.777 -38.944,-50.128 -44.274,-51.018c-3.02,-0.504 -21.751,11.22 -43.732,23.024Zm-263.466,-231.289c-9.461,-3.734 -20.427,-11.618 -20.393,-1.376c0.878,263.062 -0.075,263.999 2.093,265.173c6.681,3.617 7.141,2.356 90.505,28.788c89.211,28.285 88.593,30.093 96.584,31.585c11.473,2.142 -10.836,-9.831 -12.976,-11.129c-60.429,-36.649 -111.011,-69.665 -120.554,-75.894c-6.28,-4.099 -3.836,-6.276 -4.25,-217.904c-0.011,-5.868 -0.707,-7.352 -31.01,-19.244Zm387.342,126.678c-13.56,-6.957 -13.447,-7.127 -14.633,-7.714c-4.434,-2.192 -14.152,4.531 -22.636,9.124c-10.351,5.604 -24.236,10.816 -18.036,14.511c35.593,21.21 39.137,19.522 42.467,17.937c2.732,-1.301 20.917,-9.959 33.325,-17.895c6.236,-3.989 -7.595,-8.951 -20.488,-15.963Zm-113.708,-49.04c0.739,0.403 9.327,5.091 7.741,7.126c-7.144,9.17 -7.804,13.096 -18.171,7.583c-25.535,-13.58 -26.507,-15.172 -34.343,-10.821c-54.238,30.117 -56.646,29.538 -56.666,36.714c-0.179,66.516 -2.418,67.376 1.304,71.748c0.982,1.154 59.155,35.164 63.237,34.603c5.164,-0.711 4.792,-1.837 57.303,-31.029c7.425,-4.128 4.958,-10.52 5.53,-56.732c0.12,-9.727 6.21,-5.408 31.857,-19.217c34.302,-18.468 35.156,-22.009 46.022,-16.484c39.869,20.27 44.632,25.689 44.725,19.131c0.191,-13.358 -0.025,-13.27 0.005,-166.993c0.002,-10.823 -6.659,-0.249 -121.508,59.495c-55.688,28.969 -55.186,30.064 -55.482,31.245c-0.785,3.133 -0.818,17.072 1.817,18.784c4.059,2.638 21.485,11.962 26.628,14.847Zm-65.314,153.528c-7.485,-4.081 -7.439,-4.051 -8.083,-4.407c-26.899,-14.863 -26.749,-14.909 -29.083,-16.19c-7.874,-4.321 -8.413,-1.58 -14.099,5.111c-39.263,46.203 -41.787,46.29 -39.834,51.09c1.207,2.967 2.154,1.883 33.554,21.84c71.321,45.331 75.76,51.255 76.176,44.221c0.468,-7.92 -0.08,-77.878 -0.133,-84.65c-0.071,-9.063 -6.162,-10.098 -18.498,-17.015Zm-44.489,-261.723c-5.078,27.714 21.142,33.023 35.093,20.059c4.015,-3.731 3.533,-4.113 47.712,-49.171c17.334,-17.679 -2.586,-56.639 -34.31,-24.026c-45.353,46.625 -45.598,46.515 -48.495,53.138Zm137.626,351.519c-0.371,5.486 2.524,3.294 7.558,1.197c31.474,-13.11 180.02,-56.104 181.854,-59.281c3.126,-5.415 1.357,-244.976 1.2,-266.278c-0.051,-6.956 -3.54,-3.357 -10.02,-0.708c-11.268,4.606 -38.153,14.362 -40.587,17.43c-2.471,3.114 0.251,216.582 -1.395,220.02c-1.458,3.045 -115.354,75.684 -138.611,87.621Zm-203.481,-235.715c0.729,8.6 -2.616,11.815 4.757,12.829c7.624,1.049 32.607,21.301 32.724,11.878c0.362,-29.202 0.14,-31.509 -3.729,-30.736c-21.953,4.388 -21.759,-0.545 -30.978,-2.142c-3.103,-0.538 -1.854,1.358 -2.774,8.171Zm134.788,-199.177c9.665,1.043 9.382,1.858 18.787,4.466c5.353,1.484 1.456,-3.329 3.032,-69.375c0.184,-7.7 20.961,-3.923 29.657,-4.358c0.528,-0.026 3.694,-0.469 -1.057,-6.528c-41.938,-53.496 -41.1,-54.043 -44.829,-58.62c-4.175,-5.123 -4.637,-0.36 -8.682,4.841c-25.922,33.33 -36.209,47.601 -41.111,53.795c-7.507,9.486 4.593,6.052 23.601,6.339c7.539,0.114 3.953,4.628 4.931,66.473c0.077,4.883 2.204,4.189 15.67,2.968Zm-148.321,240.73c-12.024,6.57 -26.522,12.101 -20.485,15.747c35.859,21.655 39.191,19.794 42.409,17.997c32.42,-18.109 40.066,-19.404 33.236,-23.208c-36.352,-20.248 -37.342,-19.81 -40.604,-18.371c-1.21,0.534 -0.914,0.635 -14.556,7.835Zm-27.112,32.898c-0.559,-0.314 -7.843,-4.401 -8.011,-0.179c-0.238,5.983 0.071,55.002 0.101,59.784c0.044,6.969 4.285,7.849 26.178,21.309c13.072,8.036 13.977,12.307 17.011,7.614c0.405,-0.626 0.151,-58.866 0.129,-63.985c-0.037,-8.41 -3.705,-7.409 -35.408,-24.543Zm278.738,5.663c-10.529,-5.651 -18.218,-11.123 -18.188,-3.782c0.111,26.654 -1.671,28.01 4.662,35.84c1.812,2.24 35.898,42.449 36.045,42.473c4.398,0.711 2.428,-2.651 2.241,-55.649c-0.022,-6.219 -1.087,-6.642 -24.76,-18.881Zm-169.362,-154.261c-12.276,-7.452 -12.287,-7.627 -19.339,-20.301c-3.593,-6.459 -9.237,3.275 -38.411,32.515c-1.868,1.872 -18.254,18.296 -5.59,32.58c19.202,21.658 40.528,-9.6 66.286,-35.832c4.611,-4.696 3.041,-6.518 -2.946,-8.962Zm247.704,148.653c-29.808,16.067 -35.438,16.012 -35.479,24.487c-0.025,5.122 -0.31,62.872 0.055,64.027c1.47,4.658 9.46,-3.135 36.796,-19.553c8.645,-5.192 6.048,-7.666 6.286,-58.909c0.005,-1.002 0.057,-12.159 -1.604,-12.42c-3.405,-0.535 -3.019,0.671 -6.053,2.367Zm-260.847,24.488c0.104,-20.99 0.142,-20.856 0.113,-22.669c-0.12,-7.378 -4.749,-3.15 -36.018,13.112c-10.841,5.638 -5.459,10.532 -7.065,61.187c-0.247,7.792 4.468,2.142 11.946,-7.03c25.158,-30.855 29.347,-29.122 31.025,-44.6Z" style="fill:#1b4483;"/><path d="M318.662,411.551c-45.062,48.394 -45.51,54.28 -50.628,49.22c-37.533,-37.109 -38.403,-39.241 -35.423,-42.515c1.968,-2.162 8.953,-10.354 11.712,-7.812c21.275,19.608 22.277,31.273 32.982,19.582c76.444,-83.487 79.835,-90.043 84.779,-85.877c13.713,11.555 5.629,14.143 2.051,17.996c-3.656,3.936 -3.436,4.023 -45.473,49.406Z" style="fill:#1b4381;"/></svg>
