<svg xmlns="http://www.w3.org/2000/svg" viewBox="0 0 820 390" role="img" aria-labelledby="title desc">
<title id="title">Ember — foreman</title><desc id="desc">Scattered papers gather into a plan while Ember settles. Original closing line: What’s next? This one. Illustrative animation, not benchmark timing.</desc>
<style>
:root{--paper:#fff;--ink:#252820;--muted:#67716a;--line:#dadfd8;--blue:#21553b;--wash:#edf3ed;--warm:#f4f0e8}
:root{--paper:#191c1b;--ink:#eee9de;--muted:#b5bfb7;--line:#49524b;--blue:#9ec8ac;--wash:#283b30;--warm:#30342e}
.paper{fill:var(--paper)}.ink{fill:var(--ink)}.muted,.mut2{fill:var(--muted)}.edge{stroke:var(--ink);stroke-linecap:round;stroke-linejoin:round;stroke-width:3}.line{stroke:var(--line);fill:none;stroke-width:2}.blue{fill:var(--blue)}.wash{fill:var(--wash)}.warm{fill:var(--warm)}text{font-family:Segoe UI,Arial,sans-serif;font-kerning:normal;text-rendering:optimizeLegibility}.body{fill:#ed9852}.flame{fill:#efad50}.mark{fill:none;stroke:var(--ink);stroke-width:3.4;stroke-linecap:round}.link{fill:var(--blue);text-decoration:underline}
.flame-move{transform-origin:0 -77px;animation:fire 14s ease-in-out infinite}.noise,.stress{opacity:0;animation:stress 14s ease-in-out infinite}.stress{animation-name:expression}@keyframes expression{0%,34%,100%{opacity:1}43%,94%{opacity:0}}.noise.two{animation-name:second}.noise.three{animation-name:third}.calm,.late{animation:calm 14s ease-in-out infinite}.hush{animation:hush 14s ease-in-out infinite}.shh{opacity:0;animation:shh 14s ease-in-out infinite}.result{animation:result 14s ease-in-out infinite}.sheet{opacity:0;animation:store 14s ease-in-out infinite}.typing-left{animation:typing 14s linear infinite}.typing-right{animation:typing 14s linear -.07s infinite}@keyframes hand-off{0%,40%,55%,100%{opacity:1}44%,50%{opacity:0}}@keyframes typing{0.000%{transform:translateY(0.00px)}1.190%{transform:translateY(-4.04px)}2.381%{transform:translateY(-1.64px)}3.571%{transform:translateY(-1.43px)}4.762%{transform:translateY(-4.17px)}5.952%{transform:translateY(-0.01px)}7.143%{transform:translateY(-3.90px)}8.333%{transform:translateY(-1.86px)}9.524%{transform:translateY(-1.22px)}10.714%{transform:translateY(-4.28px)}11.905%{transform:translateY(-0.04px)}13.095%{transform:translateY(-3.74px)}14.286%{transform:translateY(-2.08px)}15.476%{transform:translateY(-1.03px)}16.667%{transform:translateY(-4.36px)}17.857%{transform:translateY(-0.10px)}19.048%{transform:translateY(-3.56px)}20.238%{transform:translateY(-2.31px)}21.429%{transform:translateY(-0.85px)}22.619%{transform:translateY(-4.43px)}23.810%{transform:translateY(-0.18px)}25.000%{transform:translateY(-3.38px)}26.190%{transform:translateY(-2.53px)}27.381%{transform:translateY(-0.68px)}28.571%{transform:translateY(-4.47px)}29.762%{transform:translateY(-0.27px)}30.952%{transform:translateY(-3.18px)}32.143%{transform:translateY(-2.75px)}33.333%{transform:translateY(-0.53px)}34.524%{transform:translateY(-4.24px)}35.714%{transform:translateY(-0.32px)}36.905%{transform:translateY(-2.01px)}38.095%{transform:translateY(-1.62px)}39.286%{transform:translateY(-0.16px)}40.476%{transform:translateY(-1.26px)}41.667%{transform:translateY(-0.08px)}42.857%{transform:translateY(-0.04px)}44.048%{transform:translateY(0.00px)}45.238%{transform:translateY(0.00px)}46.429%{transform:translateY(0.00px)}47.619%{transform:translateY(0.00px)}48.810%{transform:translateY(0.00px)}50.000%{transform:translateY(-1.94px)}51.190%{transform:translateY(-1.38px)}52.381%{transform:translateY(-0.57px)}53.571%{transform:translateY(-0.04px)}54.762%{transform:translateY(-0.14px)}55.952%{transform:translateY(-0.79px)}57.143%{transform:translateY(-1.58px)}58.333%{transform:translateY(-1.99px)}59.524%{transform:translateY(-1.76px)}60.714%{transform:translateY(-1.02px)}61.905%{transform:translateY(-0.28px)}63.095%{transform:translateY(-0.00px)}64.286%{transform:translateY(-0.38px)}65.476%{transform:translateY(-1.16px)}66.667%{transform:translateY(-1.84px)}67.857%{transform:translateY(-1.97px)}69.048%{transform:translateY(-1.47px)}70.238%{transform:translateY(-0.67px)}71.429%{transform:translateY(-0.08px)}72.619%{transform:translateY(-0.09px)}73.810%{transform:translateY(-0.70px)}75.000%{transform:translateY(-1.50px)}76.190%{transform:translateY(-1.98px)}77.381%{transform:translateY(-1.82px)}78.571%{transform:translateY(-1.12px)}79.762%{transform:translateY(-0.35px)}80.952%{transform:translateY(-0.00px)}82.143%{transform:translateY(-0.30px)}83.333%{transform:translateY(-1.06px)}84.524%{transform:translateY(-1.78px)}85.714%{transform:translateY(-1.99px)}86.905%{transform:translateY(-1.56px)}88.095%{transform:translateY(-0.76px)}89.286%{transform:translateY(-0.12px)}90.476%{transform:translateY(-0.05px)}91.667%{transform:translateY(-0.60px)}92.857%{transform:translateY(-1.41px)}94.048%{transform:translateY(-1.95px)}95.238%{transform:translateY(-1.87px)}96.429%{transform:translateY(-1.22px)}97.619%{transform:translateY(-0.43px)}98.810%{transform:translateY(-0.01px)}100.000%{transform:translateY(-0.23px)}}.tense{animation:tense .16s ease-in-out infinite alternate}.eyelids{animation:blink 14s infinite;transform-origin:0 -24px}
@keyframes fire{0.0%{transform:rotate(-10deg) scale(1.09,1.22)}2.1%{transform:rotate(10deg) scale(0.98,1.12)}4.2%{transform:rotate(-10deg) scale(0.98,1.12)}6.3%{transform:rotate(10deg) scale(1.09,1.22)}8.4%{transform:rotate(-10deg) scale(0.98,1.12)}10.5%{transform:rotate(10deg) scale(0.98,1.12)}12.6%{transform:rotate(-10deg) scale(1.09,1.22)}14.7%{transform:rotate(10deg) scale(0.98,1.12)}16.8%{transform:rotate(-10deg) scale(0.98,1.12)}18.9%{transform:rotate(10deg) scale(1.09,1.22)}21.0%{transform:rotate(-10deg) scale(0.98,1.12)}23.1%{transform:rotate(10deg) scale(0.98,1.12)}25.2%{transform:rotate(-10deg) scale(1.09,1.22)}27.3%{transform:rotate(10deg) scale(0.98,1.12)}29.4%{transform:rotate(-10deg) scale(0.98,1.12)}31.5%{transform:rotate(10deg) scale(1.09,1.22)}33.6%{transform:rotate(-10deg) scale(0.98,1.12)}38%{transform:rotate(0) scale(1.1,1.2)}43%{transform:rotate(-3deg) scale(.8,.86)}49%,61%,75%,89%{transform:rotate(2deg) scale(.87,.94)}55%,68%,82%,94%{transform:rotate(-2deg) scale(.85,.92)}100%{transform:rotate(-10deg) scale(1.09,1.22)}}
@keyframes stress{0%,3%{opacity:0}8%,34%{opacity:1}41%,100%{opacity:0}}@keyframes second{0%,12%{opacity:0}17%,34%{opacity:1}41%,100%{opacity:0}}@keyframes third{0%,22%{opacity:0}27%,34%{opacity:1}41%,100%{opacity:0}}
@keyframes calm{0%,40%,100%{opacity:0}49%,94%{opacity:1}}@keyframes hush{0%,35%{opacity:0;transform:translateY(-12px)}42%,94%{opacity:1;transform:translateY(0)}100%{opacity:0;transform:translateY(0)}}@keyframes shh{0%,40%{opacity:0}44%,48%{opacity:1;transform:translate(0,0)}0%,40%,54%,100%{opacity:0;transform:translate(4px,6px)}}@keyframes result{0%,66%,100%{opacity:0}72%,95%{opacity:1}}
@keyframes tense{to{transform:translateX(1.2px)}}@keyframes blink{0%,57%,59%,81%,83%,100%{transform:scaleY(1)}58%,82%{transform:scaleY(.1)}}@keyframes store{0%,22%{opacity:0;transform:translateY(0)}27%,35%{opacity:1;transform:translateY(0)}47%{opacity:1;transform:translateY(90px)}51%,100%{opacity:0;transform:translateY(90px)}}
@media(prefers-reduced-motion:reduce){*{animation:none!important}.noise,.stress,.sheet,.shh{opacity:0}.calm,.hush,.result,.late{opacity:1}.flame-move{transform:scale(.85,.92)}}
.body.edge,.flame.edge{stroke:#252820}.eyelids .ink{fill:#252820}.stress .mark,.noise .mark,.mark.calm{stroke:#252820}@keyframes merge0{0%,28%{opacity:1;transform:translate(48px,69px) rotate(-10deg)}43%{opacity:1;transform:translate(66px,203px) rotate(0) scale(.85,.35)}48%,100%{opacity:0;transform:translate(66px,203px) scale(.85,.35)}}@keyframes merge1{0%,28%{opacity:1;transform:translate(77px,142px) rotate(13deg)}46%{opacity:1;transform:translate(66px,236px) rotate(0) scale(.85,.35)}51%,100%{opacity:0;transform:translate(66px,236px) scale(.85,.35)}}@keyframes merge2{0%,28%{opacity:1;transform:translate(106px,215px) rotate(-10deg)}49%{opacity:1;transform:translate(66px,269px) rotate(0) scale(.85,.35)}54%,100%{opacity:0;transform:translate(66px,269px) scale(.85,.35)}}.eyelids{animation:calm 14s ease-in-out infinite}.resting{animation:resting 14s ease-in-out infinite}@keyframes resting{0%,64%,100%{opacity:1}72%,95%{opacity:0}}.point{transform-origin:0 20px;animation:point 14s ease-in-out infinite}@keyframes point{0%,64%,100%{opacity:0;transform:rotate(-9deg)}72%,95%{opacity:1;transform:rotate(0)}}</style>
<rect class="paper" width="820" height="390" rx="20"/>
<text x="30" y="32" class="muted" font-size="12" letter-spacing="2">FOREMAN / EMBER</text>
<g style="animation:merge0 14s ease-in-out infinite"><path d="M-11 18L-14 -8 28 -12 43 -2 143 -5 148 73 -9 77Z" class="wash edge"/><path d="M3 -7L122 -11 132 55 5 61Z" class="paper edge"/><path d="M0 0Q61 -3 131 1L134 61Q66 65 -1 62Z" class="warm edge"/><path d="M-12 54Q55 48 149 52L146 77 -9 80Z" class="wash edge"/><text x="12" y="25" class="ink" font-size="17">Task #1</text><path d="M12 40q48 -2 106 1M12 51h72" class="line"/></g><g style="animation:merge1 14s ease-in-out infinite"><path d="M0 0Q61 -3 131 1L133 37 122 40 131 45 120 49 130 54 120 60 105 56 97 64 84 59 72 65 59 60 45 66 31 61 16 66 -1 62Z" class="warm edge"/><path d="M113 71l11 -4 8 7 -13 9Z" class="warm edge"/><text x="12" y="25" class="ink" font-size="17">Side Request</text><path d="M12 40q48 -2 106 1M12 51h72" class="line"/></g><g style="animation:merge2 14s ease-in-out infinite"><path d="M-11 18L-14 -8 28 -12 43 -2 143 -5 148 73 -9 77Z" class="wash edge"/><path d="M3 -7L122 -11 132 55 5 61Z" class="paper edge"/><path d="M0 0Q61 -3 131 1L134 61Q66 65 -1 62Z" class="warm edge"/><path d="M-12 54Q55 48 149 52L146 77 -9 80Z" class="wash edge"/><text x="12" y="25" class="ink" font-size="17">Issue 104</text><path d="M12 40q48 -2 106 1M12 51h72" class="line"/></g><g class="calm"><path d="M51 161Q159 158 267 163L269 318Q161 322 51 318Z" class="wash edge"/><text x="69" y="190" class="ink" font-size="19">the plan</text><path d="M69 220l6 6 11 -13" fill="none" stroke="var(--blue)" stroke-width="3"/><text x="98" y="226" class="ink" font-size="17">Task #1</text><path d="M69 253l6 6 11 -13" fill="none" stroke="var(--blue)" stroke-width="3"/><text x="98" y="259" class="ink" font-size="17">Side Request</text><path d="M69 274l16 1 -1 15 -16 -1Z" fill="none" stroke="var(--blue)" stroke-width="2"/><text x="98" y="292" class="ink" font-size="17">Issue 104</text></g>
<path d="M30 338Q141 335 245 338T466 337T650 339T790 337" class="line"/>
<g transform="translate(394 235)">
<ellipse cx="0" cy="95" rx="93" ry="7" fill="var(--ink)" opacity=".07"/>
<g class="flame-move"><path d="M-15 -76 Q-32 -98 0 -128 Q2 -109 17 -98 Q28 -77 7 -71Z" class="flame edge"/><path d="M-5 -79Q-12 -92 1 -104Q0 -93 9 -82Z" fill="#ffd891"/></g>
<path d="M-72 32 C-78 -10 -56 -65 -24 -76 C9 -87 48 -63 64 -29 C84 15 76 48 51 59 C22 74 -26 74 -54 59 Q-73 51 -72 32Z" class="body edge"/>

<ellipse cx="-37" cy="-9" rx="8" ry="4" fill="#d96e44" opacity=".35"/><ellipse cx="37" cy="-9" rx="8" ry="4" fill="#d96e44" opacity=".35"/>
<g class="eyelids"><ellipse cx="-23" cy="-24" rx="4" ry="7" class="ink"/><ellipse cx="23" cy="-24" rx="4" ry="7" class="ink"/></g>
<g class="stress"><g class="tense"><path d="M-34 -39l15 -6M19 -45l15 6M-31 -28l10 5 -10 5M31 -28l-10 5 10 5M-11 4Q0 -9 11 4" class="mark"/><path d="M63 -53Q53 -37 63 -36Q73 -36 63 -53" fill="var(--blue)"/></g></g>
<path d="M-10 -5Q0 4 11 -6" class="mark calm"/>
<path d="M-67 54Q-7 52 66 55Q76 54 75 63L73 79Q74 86 65 85Q-6 82 -67 85Q-77 84 -75 77L-75 62Q-76 54 -67 54Z" class="warm edge"/>
<path transform="translate(-62 61) rotate(-2)" d="M0 0L14 -1 15 6 1 6Z" fill="var(--muted)"/><path transform="translate(-41 61) rotate(2)" d="M0 0L14 -1 15 6 1 6Z" fill="var(--muted)"/><path transform="translate(-20 61) rotate(-2)" d="M0 0L14 -1 15 6 1 6Z" fill="var(--muted)"/><path transform="translate(1 61) rotate(2)" d="M0 0L14 -1 15 6 1 6Z" fill="var(--muted)"/><path transform="translate(22 61) rotate(-2)" d="M0 0L14 -1 15 6 1 6Z" fill="var(--muted)"/><path transform="translate(43 61) rotate(2)" d="M0 0L14 -1 15 6 1 6Z" fill="var(--muted)"/><path transform="translate(-62 72) rotate(-2)" d="M0 0L14 -1 15 6 1 6Z" fill="var(--muted)"/><path transform="translate(-41 72) rotate(2)" d="M0 0L14 -1 15 6 1 6Z" fill="var(--muted)"/><path transform="translate(-20 72) rotate(-2)" d="M0 0L14 -1 15 6 1 6Z" fill="var(--muted)"/><path transform="translate(1 72) rotate(2)" d="M0 0L14 -1 15 6 1 6Z" fill="var(--muted)"/><path transform="translate(22 72) rotate(-2)" d="M0 0L14 -1 15 6 1 6Z" fill="var(--muted)"/><path transform="translate(43 72) rotate(2)" d="M0 0L14 -1 15 6 1 6Z" fill="var(--muted)"/>
<g class="resting"><path d="M-59 16Q-71 34 -48 47Q-36 49 -35 39L-43 25M59 16Q71 34 48 47Q36 49 35 39L43 25" class="body edge"/></g><g class="point"><path d="M-58 15Q-80 24 -108 2Q-120 -4 -121 4Q-123 12 -109 18L-61 41" class="body edge"/></g>
<g class="point"><path d="M57 15Q50 43 5 38L-24 27Q-35 20 -35 28Q-36 35 -24 39L8 54Q56 63 65 28" class="body edge"/></g>

</g>
<g class="hush"><g transform="translate(619 85) scale(1.5) translate(-619 -85)"><path d="M594 67Q619 64 647 69Q666 71 664 86Q663 104 644 102L593 103Q575 100 576 86Q574 71 594 67Z" class="blue edge"/><text x="619" y="91" text-anchor="middle" class="paper" font-size="17" font-weight="700">Foreman</text></g></g>
<g class="result"><path d="M532 157Q652 152 779 158Q798 156 797 177L799 254Q800 276 780 276Q650 280 533 275Q514 278 515 257L516 221 501 214 516 205 514 178Q512 158 532 157Z" class="wash edge"/><text x="656" y="224" class="ink" text-anchor="middle" font-size="20" font-weight="600">What’s next? This one.</text></g>
<text x="410" y="369" text-anchor="middle" class="muted" font-size="14">One plan. A clear next step.</text>
</svg>