<?xml version="1.0" encoding="UTF-8" standalone="no"?><!DOCTYPE svg PUBLIC "-//W3C//DTD SVG 1.1//EN" "http://www.w3.org/Graphics/SVG/1.1/DTD/svg11.dtd"><svg width="100%" height="100%" viewBox="0 0 389 639" version="1.1" xmlns="http://www.w3.org/2000/svg" xmlns:xlink="http://www.w3.org/1999/xlink" xml:space="preserve" xmlns:serif="http://www.serif.com/" style="fill-rule:evenodd;clip-rule:evenodd;stroke-linejoin:round;stroke-miterlimit:2;"><path d="M248.062,550.838c0.164,31.082 1.609,39.93 -3.515,44.787c-3.797,3.599 -43.624,41.355 -49.117,43.174c-2.882,0.955 -6.569,-4.852 -46.463,-39.363c-11.211,-9.698 -7.317,-12.243 -7.818,-71.268c-0.056,-6.627 -12.942,-21.057 -78.586,-116.844c-61.425,-89.633 -64.676,-89.92 -61.892,-95.099c1.859,-3.458 144.437,-251.363 157.006,-273.215c1.834,-3.188 1.747,-3.212 21.991,-40.378c6.128,-11.25 2.985,6.355 3.562,197.579c0.084,27.771 0.1,29.164 -19.064,49.048c-66.006,68.486 -65.872,69.083 -65.706,70.609c0.235,2.16 0.931,1.873 48.85,50.295c37.928,38.326 38.445,37.873 44.897,48.193c3.328,5.324 3.513,-1.494 28.23,-26.241c26.303,-26.335 25.707,-26.706 52.436,-52.748c16.959,-16.524 20.57,-19.127 16.891,-23.025c-69.224,-73.362 -83.659,-80.788 -83.738,-99.634c-0.072,-17.268 -0.897,-214.991 0.366,-215.855c2.884,-1.971 2.187,1.788 170.262,294.495c12.775,22.249 14.404,23.334 9.88,30.074c-16.612,24.755 -137.532,196.182 -138.196,200.518c-0.301,1.969 0.042,1.811 -0.276,24.895Zm-168.864,-245.535c0.231,-2.297 2.433,-24.144 2.657,-28.732c0.403,-8.23 -29.764,19.421 -41.743,27.846c-0.52,0.366 -10.675,7.509 -3.339,7.218c35.697,-1.414 40.065,3.7 42.425,-6.332Zm230.987,-1.881c1.961,11.2 6.153,7.697 17.409,7.7c19.386,0.005 31.036,1.664 26.642,-3.509c-0.259,-0.305 -26.947,-20.316 -29.295,-22.077c-15.03,-11.27 -15.316,-11.223 -15.872,-10.929c-2.671,1.41 0.056,18.789 1.116,28.815Zm26.72,65.887c-3.832,-1.816 -3.876,-0.352 -7.05,2.388c-2.911,2.513 -2.781,2.585 -35.862,32.007c-39.377,35.022 -48.585,34.495 -46.239,87.137c0.005,0.106 2.438,2.79 3.69,0.382c3.383,-6.507 5.331,-7.823 33.596,-49.204c25.248,-36.965 26.27,-36.064 51.866,-72.71Zm-37.242,-82.548c-2.2,-19.674 -2.168,-19.632 -2.358,-20.741c-0.484,-2.826 -1.024,-2.867 -30.08,-19.474c-35.748,-20.432 -35.331,-21.146 -38.639,-22.509c-11.233,-4.627 9.135,13.26 11.776,15.945c4.51,4.584 49.645,50.462 55.644,58.019c7.321,9.221 4.08,-7.852 3.657,-11.24Zm-161.687,-179.067c-6.159,7.452 -1.278,10.112 -58.93,105.503c-3.131,5.18 -2.198,5.67 -37.945,65.451c-6.692,11.192 7.631,-1.575 8.131,-2.021c23.515,-20.96 31.089,-16.839 39.139,-37.217c31.084,-78.688 29.695,-79.082 49.147,-121.781c0.217,-0.476 1.796,-3.942 2.316,-6.109c0.825,-3.441 -1.678,-3.454 -1.858,-3.826Zm-19.918,80.488c-16.321,43.246 -23.196,55.556 -15.33,51.083c60.369,-34.328 62.872,-33.195 63.316,-39.133c0.049,-0.658 0.251,-131.498 0.242,-131.506c-4.017,-3.439 -2.133,2.504 -25.255,61.09c-21.301,53.973 -21.123,53.794 -22.973,58.467Zm-28.605,102.707c-0.282,7.615 -2.811,15.072 2.463,9.597c5.79,-6.01 71.954,-74.689 71.923,-75.562c-0.185,-5.182 -3.316,-0.297 -57.154,30.571c-10.785,6.183 -14.168,4.532 -15.235,16.811c-0.129,1.49 -0.153,1.344 -1.998,18.582Zm142.164,165.175c6.276,-26.196 8.464,-26.544 31.952,-47.636c12.099,-10.865 8.928,-12.934 28.978,-59.714c4.661,-10.874 -3.747,-2.113 -3.953,-1.832c-5.029,6.856 -44.479,44.758 -69.589,70.549c-18.735,19.244 -15.932,26.33 -15.924,106.593c0.008,75.741 -1.879,75.838 -0.314,82.227c0.601,2.453 2.908,2.147 25.388,-18.761c6.427,-5.978 1.726,-52.315 3.462,-131.427Zm-5.813,-387.327c-2.824,-0.1 -2.638,-0.228 -2.824,-0.1c-0.322,0.223 0.163,119.14 0.205,129.5c0.029,7.077 6.601,8.495 20.071,16.13c45.231,25.639 45.944,26.515 46.942,24.951c1.699,-2.663 -57.188,-143.815 -64.393,-170.481Zm-127.26,276.402c-0.29,0.72 -1.427,0.852 -1.717,1.571c-0.184,0.456 7.23,17.901 11.587,29.023c2.92,7.451 2.906,7.273 5.855,14.564c11.754,29.064 29.335,25.114 39.114,49.555c8.925,22.307 2.871,92.203 4.593,141.971c0.151,4.363 8.341,10.162 10.782,12.351c13.382,11.998 17.635,16.648 17.452,10.583c-0.009,-0.311 -0.189,-0.26 -0.12,-140.546c0.023,-47.215 -15.159,-41.989 -87.546,-119.072Zm184.491,-151.461c20.569,54.01 20.636,54.258 24.393,57.56c3.369,2.962 26.482,19.956 30.383,23.345c10.249,8.903 11.096,8.755 11.558,7.743c0.606,-1.327 -90.19,-155.172 -95.801,-170.989c-1.252,-3.529 -5.016,-3.693 -4.221,0.18c1.428,6.959 3.448,6.168 33.687,82.161Zm-142.197,262.169c-2.6,-13.826 -8.572,-19.403 -23.653,-32.849c-4.948,-4.412 -61.603,-54.927 -62.027,-54.948c-5.305,-0.268 0.425,3.035 48.417,72.953c32.269,47.012 31.815,47.313 35.015,51.097c5.934,7.017 2.495,-33.357 2.248,-36.253Zm-107.61,-125.93c4.31,4.29 5.297,2.973 58.501,48.544c1.975,1.692 11.496,12.674 12.187,7.381c0.366,-2.797 -1.784,-2.211 -14.888,-35.347c-4.449,-11.251 -6.874,-22.595 -13.045,-22.709c-3.323,-0.061 -40.643,-0.748 -41.545,-0.082c-0.676,0.499 -0.534,1.713 -1.21,2.213Zm266.277,23.248c-8.816,23.259 -19.966,43.508 -6.367,29.525c1.654,-1.701 1.652,-1.558 62.334,-51.399c4.583,-3.764 -1.805,-3.796 -40.257,-3.533c-8.432,0.058 -9.608,10.175 -15.71,25.407Z" style="fill:#3056b0;"/></svg>
