<svg xmlns="http://www.w3.org/2000/svg" viewBox="0 0 940 340" width="940" height="340" role="img" aria-label="Context traffic by segment (Σ input+cache tokens, median)"><rect width="940" height="340" fill="#fafafa"/><text x="70" y="16" font-size="13" fill="#1a1a1a">Context traffic by segment</text><text x="264" y="16" font-size="11" fill="#888">Σ input+cache tokens, median</text><line x1="70" x2="920" y1="240" y2="240" stroke="#e5e5e5"/><text x="62" y="244" font-size="10" fill="#777" text-anchor="end">0</text><line x1="70" x2="920" y1="191.5" y2="191.5" stroke="#e5e5e5"/><text x="62" y="195.5" font-size="10" fill="#777" text-anchor="end">151552</text><line x1="70" x2="920" y1="143" y2="143" stroke="#e5e5e5"/><text x="62" y="147" font-size="10" fill="#777" text-anchor="end">303105</text><line x1="70" x2="920" y1="94.5" y2="94.5" stroke="#e5e5e5"/><text x="62" y="98.5" font-size="10" fill="#777" text-anchor="end">454657</text><line x1="70" x2="920" y1="46" y2="46" stroke="#e5e5e5"/><text x="62" y="50" font-size="10" fill="#777" text-anchor="end">606209</text><rect x="166.7" y="46.0" width="27.0" height="194.0" fill="#8a8f98"><title>long-session · baseline: 606209</title></rect><rect x="196.7" y="137.4" width="27.0" height="102.6" fill="#e8a04c"><title>long-session · concise: 320455</title></rect><rect x="226.7" y="121.0" width="27.0" height="119.0" fill="#6ac47a"><title>long-session · flint: 371742</title></rect><rect x="450.0" y="183.6" width="27.0" height="56.4" fill="#8a8f98"><title>noisy-output · baseline: 176150</title></rect><rect x="480.0" y="193.8" width="27.0" height="46.2" fill="#e8a04c"><title>noisy-output · concise: 144331</title></rect><rect x="510.0" y="189.4" width="27.0" height="50.6" fill="#6ac47a"><title>noisy-output · flint: 158230</title></rect><rect x="733.3" y="171.4" width="27.0" height="68.6" fill="#8a8f98"><title>search-heavy · baseline: 214351</title></rect><rect x="763.3" y="157.0" width="27.0" height="83.0" fill="#e8a04c"><title>search-heavy · concise: 259512</title></rect><rect x="793.3" y="168.8" width="27.0" height="71.2" fill="#6ac47a"><title>search-heavy · flint: 222557</title></rect><text x="211.7" y="256" transform="rotate(28 211.7 256)" font-size="11" fill="#444" text-anchor="start">long-session</text><text x="495.0" y="256" transform="rotate(28 495.0 256)" font-size="11" fill="#444" text-anchor="start">noisy-output</text><text x="778.3" y="256" transform="rotate(28 778.3 256)" font-size="11" fill="#444" text-anchor="start">search-heavy</text><rect x="70" y="24" width="10" height="10" fill="#8a8f98"/><text x="85" y="33" font-size="11" fill="#333">baseline</text><rect x="200" y="24" width="10" height="10" fill="#e8a04c"/><text x="215" y="33" font-size="11" fill="#333">concise</text><rect x="330" y="24" width="10" height="10" fill="#6ac47a"/><text x="345" y="33" font-size="11" fill="#333">flint</text></svg>
