<?xml version="1.0" encoding="UTF-8" standalone="no"?><!DOCTYPE svg PUBLIC "-//W3C//DTD SVG 1.1//EN" "http://www.w3.org/Graphics/SVG/1.1/DTD/svg11.dtd"><svg width="240" height="345.68" viewBox="0 0 243 350" version="1.1" xmlns="http://www.w3.org/2000/svg" xmlns:xlink="http://www.w3.org/1999/xlink" xml:space="preserve" xmlns:serif="http://www.serif.com/" style="fill-rule:evenodd;clip-rule:evenodd;stroke-linejoin:round;stroke-miterlimit:2;"><path d="M0.01,151.319c0.331,-11.533 -0.625,-29.631 0.814,-31.129c3.429,-3.569 3.875,-3.003 51.572,-34.175c4.412,-2.883 4.817,-0.627 21.699,10.183c22.347,14.31 26.489,18.5 26.46,14.682c-0.28,-37.199 1.245,-37.43 -0.221,-40.302c-1.543,-3.022 -31.342,0.734 -31.186,-2.145c0.09,-1.663 10.596,-14.725 11.585,-15.954c7.599,-9.449 38.51,-52.455 40.151,-52.479c2.051,-0.03 44.972,59.264 51.021,67.102c2.655,3.441 -3.642,2.354 -9.584,2.356c-17.741,0.004 -20.754,-0.989 -20.766,3.028c-0.102,36.228 -0.67,36.241 -0.143,39.344c0.092,0.541 0.714,1.388 6.413,-2.427c2.909,-1.947 27.087,-18.131 36.614,-23.968c2.136,-1.309 2.747,-1.263 19.527,10.002c4.838,3.248 36.825,23.479 37.937,25.675c1.143,2.258 0.365,64.988 0.295,70.638c-0.054,4.344 -1.391,3.973 -15.903,13.569c-38.599,25.525 -39.281,26.044 -41.609,24.618c-41.179,-25.226 -43.306,-30.068 -43.283,-26.028c0.25,43.73 -0.024,43.668 0.077,47.463c0.07,2.616 2.211,2.312 2.636,2.315c45.443,0.393 46.946,-0.852 47.259,1.771c0.11,0.921 0.004,83.657 -0.005,90.931c-0.005,3.999 -4.764,2.746 -6.815,2.746c-36.75,0.006 -36.775,0.138 -37.294,-0.088c-2.414,-1.054 -0.759,-16.477 -1.332,-34.991c-0.65,-21.031 -26.866,-32.965 -43.208,-16.148c-12.711,13.08 -4.426,46.949 -7.192,50.455c-0.609,0.772 -6.432,0.77 -6.995,0.77c-36.43,-0.012 -37.492,0.455 -38.01,-1.773c-0.045,-0.193 -0.036,-91.196 0.011,-91.89c0.145,-2.126 1.349,-1.795 41.032,-1.797c6.118,-0 8.936,1.868 8.936,-4.312c0.002,-46.269 0.053,-46.206 -0.055,-46.381c-0.709,-1.15 -1.215,-0.624 -14.632,8.436c-28.648,19.344 -28.963,19.961 -31.706,18.869c-1.67,-0.665 -51.951,-33.84 -53.191,-34.826c-0.953,-0.758 -0.917,-1.029 -0.909,-44.14Zm51.563,-45.479l-0.024,-5.266c-0.258,-2.156 -3.718,1.008 -7.824,3.765c-3.646,2.448 -9.094,4.277 -4.955,6.903c10.675,6.772 10.413,7.136 11.388,7.639c1.97,1.017 1.391,-6.709 1.415,-13.042Zm42.112,61.787c-5.989,4.143 -6.26,3.949 -6.436,4.817c-0.234,1.153 -0.373,1.842 11.313,9.388c2.828,1.826 1.902,-5.712 1.961,-15.347c0.031,-5.046 -5.948,0.531 -6.838,1.143Zm-26.3,3.793c-1.486,-1.021 -6.605,-4.786 -7.161,-4.83c-1.37,-0.109 -1.87,0.642 -1.218,17.136c0.007,0.175 0.071,1.804 2.087,0.653c0.954,-0.544 6.955,-3.968 11.338,-7.735c1.792,-1.54 -4.534,-4.913 -5.047,-5.224Zm-39.28,-18.078c-0.004,-1.694 0.039,-3.388 0.035,-5.081c-0.011,-4.103 -3.891,0.096 -4.606,0.56c-0.846,0.548 -6.685,4.335 -10.519,6.933c-3.153,2.137 -1.184,3.056 2.052,5.175c11.06,7.24 10.682,7.852 11.818,7.896c1.631,0.063 1.18,-4.324 1.22,-15.483Zm4.91,-26.28c-0.002,0.681 -0.023,8.197 0.714,8.484c1.128,0.44 17.227,-9.84 16.312,-11.473c-0.01,-0.018 -13.829,-9.42 -15.032,-10.238c-2.847,-1.937 -2.035,3.881 -1.994,13.227Zm56.637,23.097c-2.585,-1.692 -5.8,-4.51 -6.757,-3.6c-0.478,0.455 -0.332,21.576 -0.171,21.818c0.808,1.211 1.644,1.059 15.625,-9.337c2.915,-2.168 -3.251,-5.298 -8.697,-8.881Zm-11.706,51.51c-0.287,-11.468 0.727,-23.757 -1.425,-22.653c-4.231,2.169 -13.819,9.234 -14.983,10.091c-3.017,2.222 0.81,2.108 14.185,12.245l2.223,0.317Zm6.934,107.38c3.3,-13.732 5.215,-13.017 5.156,-14.227c-0.021,-0.445 0.336,-0.739 -5.628,-5.941c-20.667,-18.027 -20.883,-18.804 -21.729,-17.951c-0.711,0.717 -0.217,59.187 -0.173,64.334c0.014,1.607 0.501,2.959 19.98,2.141c3.598,-0.151 0.308,-7.42 2.393,-28.356Zm-47.091,-109.505c11.15,-7.499 11.137,-7.344 12.039,-8.074c2.329,-1.883 -8.136,-6.851 -13.681,-11.093c-4.421,-3.382 -3.084,3.051 -3.08,3.285c0.263,15.923 -1.623,20.193 2.08,17.654l2.642,-1.773Zm40.097,-81.574c0.015,-0.315 0.178,-3.815 0.136,-3.945c-0.453,-1.411 -4.065,1.096 -4.364,1.304c-12.506,8.682 -12.797,8.851 -12.582,9.783c0.501,2.167 13.196,9.16 14.419,9.834c3.329,1.834 2.444,-6.517 2.391,-16.976Zm104.922,-12.13c-0.301,-4.443 1.363,-8.139 -2.064,-5.695c-25.995,18.536 -56.682,34.473 -64.456,45.451c-4.565,6.446 -3.928,7.108 -3.925,80.521c0.001,25.932 -0.539,27.491 2.441,27.57c13.81,0.369 14.019,0.33 14.787,-0.57c1.028,-1.204 0.118,-95.527 0.49,-102.801c0.328,-6.42 10.119,-12.144 10.906,-11.834c1.242,0.489 0.582,0.942 0.55,5.768c-0.02,3.064 -0.243,37.173 -0.108,38.305c0.427,3.585 17.268,-12.346 19.752,-9.882c0.101,0.1 2.323,3.683 2.357,3.86c0.545,2.837 -16.628,11.779 -18.201,13.403c-2.404,2.481 1.387,1.833 35.206,25.011c2.981,2.043 2.242,-2.089 2.298,-17.132c0.025,-6.672 -0.614,-9.87 5.806,-8.269c2.882,0.718 0.855,22.98 1.34,25.37c0.388,1.913 2.902,-0.356 13.668,-7.159c1.973,-1.247 23.791,-15.034 24.415,-15.973c1.836,-2.765 -19.868,-12.072 -18.605,-15.303c3.143,-8.041 5.886,-3.027 13.194,1.589c5.131,3.242 9.062,7.511 8.799,2.582c-0.049,-0.92 -0.013,-47.532 -0.024,-47.689c-0.232,-3.575 -2.053,-0.34 -12.431,6.35c-5.684,3.664 -8.997,5.663 -9.531,-1.083c-0.189,-2.391 17.14,-12.142 18.196,-13.447c1.593,-1.969 -0.499,-1.456 -2.589,-2.916c-6.112,-4.27 -26.675,-17.185 -32.72,-21.653c-3.175,-2.347 -2.237,5.132 -2.317,22.817c-0.016,3.588 -2.624,3.004 -5.471,2.862c-2.451,-0.122 -1.788,-4.876 -1.763,-20.053Zm-25,208.221c0.007,1.535 0.068,14.143 -0.017,19.192c-0.1,5.915 2.645,4.142 8.572,4.146c6.461,0.005 12.998,1.001 13.185,-2.121c0.29,-4.843 -0.527,-4.771 -0.005,-60.648c0.026,-2.825 1.774,-4.453 -1.051,-4.208c-1.895,0.164 -1.479,1.002 -17.851,15.706c-6.79,6.098 -9.179,7.906 -8.324,9.686c2.673,5.567 4.308,6.583 5.493,18.246Zm-17.754,-30.288c3.296,2.222 2.793,2.797 6.28,4.664c2.261,1.21 1.89,-0.766 25.798,-21.148c4.045,-3.448 -2.528,-1.836 -66.413,-1.889c-36.321,-0.03 -37.149,-0.007 -36.988,1.013c0.104,0.662 22.035,19.533 23.975,21.203c4.758,4.094 8.531,-10.128 31.218,-9.128c7.608,0.335 14.956,4.603 16.131,5.285Zm-9.998,-201.183c-0.011,-20.588 -0.119,-23.385 0.261,-24.054c0.712,-1.256 1.061,-1.25 18.026,-0.776c1.803,0.05 1.006,-1.354 -5.611,-10.269c-1.65,-2.222 -20.42,-27.511 -20.782,-27.656c-3.066,-1.234 -14.263,17.99 -28.931,35.761c-3.947,4.782 18.84,-0.317 19.289,3.807c0.03,0.275 0.189,52.361 -0.077,58.605c-0.12,2.812 -5.269,5.996 -8.228,9.332c-9.873,11.129 -12.28,9.609 -17.056,14.22c-0.426,0.411 -0.686,1.068 5.372,5.085c7.188,4.766 7.958,6.916 8.905,4.444c5.015,-13.098 4.531,-14.038 21.38,-26.399c8.843,-6.487 7.435,-9.001 7.453,-42.099Zm-52.105,83.692c0.03,-11.549 0.576,-18.581 -1.473,-17.73c-0.801,0.333 -0.579,0.519 -8.886,6.211c-2.656,1.82 -3.805,2.655 -1.239,4.565c3.289,2.447 3.435,2.135 6.744,4.52c2.301,1.659 2.051,2.08 4.853,2.433Zm-26.398,5.253c-0.043,-3.921 0.057,-3.912 -0.046,-4.235c-0.339,-1.059 -1.135,-0.884 -12.202,6.658c-3.407,2.322 0.352,3.122 9.049,9.342c4.519,3.232 3.193,-2.986 3.198,-11.765Zm-9.575,-35.468c-2.738,1.645 -5.341,2.827 -2.642,4.698c3.023,2.096 2.975,2.004 5.98,4.145c2.287,1.628 6.107,4.981 6.256,2.546c1.003,-16.465 0.016,-17.274 -1.288,-16.903c-0.767,0.218 -0.521,0.632 -8.305,5.515Zm-24.177,11.237c6.608,-4.314 6.296,-4.762 6.267,-5.118c-0.081,-1.006 -12.314,-8.927 -12.359,-8.93c-1.366,-0.088 -1.87,0.657 -1.059,17.075c0.118,2.388 4.616,-1.383 7.152,-3.026Zm46.541,-14.269c-4.48,-2.387 -5.195,-3.458 -5.372,-2.04c-0.065,0.519 0.005,14.08 0.012,15.304c0.023,4.468 2.408,0.557 11.654,-5.712c3.594,-2.437 -1.767,-4.611 -6.294,-7.553Zm-36.003,60.738c-0.003,-1.82 0.17,-10.808 -0.378,-11.199c-0.719,-0.514 -1.78,0.284 -1.904,0.378c-9.576,7.213 -13.227,7.813 -9.634,10.26c10.611,7.224 10.822,7.214 11.638,6.791c0.741,-0.384 0.353,-0.615 0.277,-6.229Zm4.598,-32.344c0.13,3.736 -0.662,6.852 2.241,4.496c7.901,-6.409 14.252,-6.969 8.144,-10.989c-2.724,-1.793 -8.745,-6.451 -9.366,-6.479c-1.587,-0.073 -1.084,5.847 -1.02,12.971Zm-15.378,6.376c-5.385,-3.66 -5.313,-3.66 -5.867,-3.661c-1.327,-0.003 -1.735,0.574 -1.194,16.544c0.07,2.077 2.288,0.529 2.451,0.415c2.11,-1.473 2.015,-1.48 4.161,-3.026c6.253,-4.503 6.829,-4.304 6.707,-5.525c-0.1,-0.998 -5.155,-4.033 -6.258,-4.747Zm10.669,-44.782c-0.124,-6.739 0.288,-6.83 -0.133,-7.227c-0.8,-0.752 -2.047,0.107 -2.192,0.207c-9.235,6.362 -11.633,7.602 -9.998,8.892c0.833,0.657 9.261,7.307 10.919,7.535c2.176,0.298 1.41,-8.328 1.405,-9.407Zm54.229,70.749c-0.054,4.069 -1.012,8.338 3.148,5.21c5.382,-4.048 12.954,-6.302 8.888,-9.106c-8.081,-5.575 -11.125,-7.997 -11.918,-7.149c-0.269,0.288 -0.131,0.361 -0.118,11.046Zm0.028,-72.774c-0.014,1.875 -0.507,9.358 0.892,9.448c0.586,0.038 11.712,-6.938 10.982,-8.333c-0.046,-0.087 -10.65,-8.151 -11.746,-7.077c-0.341,0.334 -0.009,0.404 -0.129,5.962Zm-30.956,81.869c0.034,-1.715 0.007,-3.431 0.04,-5.147c0.072,-3.644 -3.998,0.967 -13.342,6.531c-3.715,2.212 -0.589,3.002 3.034,5.319c8.38,5.359 8.201,5.629 8.988,5.987c1.837,0.836 1.284,-6.375 1.28,-12.691Zm7.47,-96.02c-0.033,6.051 -0.597,12.501 1.249,12.25c0.526,-0.071 1.704,-1.505 12.207,-8.07c3.655,-2.285 -1.112,-3.884 -4.943,-6.501c-0.485,-0.331 -5.929,-4.05 -6.059,-4.147c-4.016,-2.964 -2.244,1.47 -2.454,6.468Zm0.028,92.99c0.006,11.85 -0.806,17.46 2.277,15.277c12.007,-8.501 14.385,-8.93 12.195,-10.346c-12.41,-8.026 -14.482,-10.281 -14.524,-6.98c-0.009,0.684 0.06,1.367 0.052,2.05Z" style="fill:#2b51a8;"/></svg>
