<svg xmlns="http://www.w3.org/2000/svg" viewBox="0 0 940 340" width="940" height="340" role="img" aria-label="Mid-turn narration by segment (words, median)"><rect width="940" height="340" fill="#fafafa"/><text x="70" y="16" font-size="13" fill="#1a1a1a">Mid-turn narration by segment</text><text x="285" y="16" font-size="11" fill="#888">words, median</text><line x1="70" x2="920" y1="240" y2="240" stroke="#e5e5e5"/><text x="62" y="244" font-size="10" fill="#777" text-anchor="end">0</text><line x1="70" x2="920" y1="191.5" y2="191.5" stroke="#e5e5e5"/><text x="62" y="195.5" font-size="10" fill="#777" text-anchor="end">28.5</text><line x1="70" x2="920" y1="143" y2="143" stroke="#e5e5e5"/><text x="62" y="147" font-size="10" fill="#777" text-anchor="end">57</text><line x1="70" x2="920" y1="94.5" y2="94.5" stroke="#e5e5e5"/><text x="62" y="98.5" font-size="10" fill="#777" text-anchor="end">85.5</text><line x1="70" x2="920" y1="46" y2="46" stroke="#e5e5e5"/><text x="62" y="50" font-size="10" fill="#777" text-anchor="end">114</text><rect x="181.7" y="206.0" width="27.0" height="34.0" fill="#8a8f98"><title>long-session · baseline: 20</title></rect><rect x="211.7" y="240.0" width="27.0" height="0.0" fill="#e8a04c"><title>long-session · turnstep: 0</title></rect><rect x="465.0" y="124.3" width="27.0" height="115.7" fill="#8a8f98"><title>noisy-output · baseline: 68</title></rect><rect x="495.0" y="227.2" width="27.0" height="12.8" fill="#e8a04c"><title>noisy-output · turnstep: 7.5</title></rect><rect x="748.3" y="46.0" width="27.0" height="194.0" fill="#8a8f98"><title>search-heavy · baseline: 114</title></rect><rect x="778.3" y="163.4" width="27.0" height="76.6" fill="#e8a04c"><title>search-heavy · turnstep: 45</title></rect><text x="211.7" y="256" transform="rotate(28 211.7 256)" font-size="11" fill="#444" text-anchor="start">long-session</text><text x="495.0" y="256" transform="rotate(28 495.0 256)" font-size="11" fill="#444" text-anchor="start">noisy-output</text><text x="778.3" y="256" transform="rotate(28 778.3 256)" font-size="11" fill="#444" text-anchor="start">search-heavy</text><rect x="70" y="24" width="10" height="10" fill="#8a8f98"/><text x="85" y="33" font-size="11" fill="#333">baseline</text><rect x="200" y="24" width="10" height="10" fill="#e8a04c"/><text x="215" y="33" font-size="11" fill="#333">turnstep</text></svg>
